<svg id="Layer_2" data-name="Layer 2" xmlns="http://www.w3.org/2000/svg" xmlns:xlink="http://www.w3.org/1999/xlink" viewBox="0 0 1306.13 813.86"><title>loading-screen-graphic—v2</title><image width="418" height="386" transform="scale(0.5)" xlink:href="../../../../../../../../Desktop/Bildschirmfoto 2023-02-21 um 16.00.15.jpg"/><circle cx="1293.63" cy="801.36" r="12.5"/><circle cx="1293.63" cy="775.36" r="12.5"/><circle cx="1293.63" cy="749.36" r="12.5"/><circle cx="1293.63" cy="723.36" r="12.5"/><circle cx="1293.63" cy="697.36" r="12.5"/><circle cx="1293.63" cy="671.36" r="12.5"/><circle cx="1293.63" cy="645.36" r="12.5"/><circle cx="1293.63" cy="619.36" r="12.5"/><circle cx="1293.63" cy="593.36" r="12.5"/><circle cx="1293.63" cy="567.36" r="12.5"/><circle cx="1293.63" cy="541.36" r="12.5"/><circle cx="1293.63" cy="515.36" r="12.5"/><circle cx="1293.63" cy="489.36" r="12.5"/><circle cx="1293.63" cy="463.36" r="12.5"/><circle cx="1293.63" cy="437.36" r="12.5"/><circle cx="1293.63" cy="411.36" r="12.5"/><circle cx="1293.63" cy="385.36" r="12.5"/><circle cx="1293.63" cy="359.36" r="12.5"/><circle cx="1293.63" cy="333.36" r="12.5"/><circle cx="1293.63" cy="307.36" r="12.5"/><circle cx="1293.63" cy="281.36" r="12.5"/><circle cx="1293.63" cy="255.36" r="12.5"/><circle cx="1293.63" cy="229.36" r="12.5"/><circle cx="1293.63" cy="203.36" r="12.5"/><circle cx="1293.63" cy="177.36" r="12.5"/><circle cx="1293.63" cy="151.36" r="12.5"/><circle cx="1293.63" cy="125.36" r="12.5"/><circle cx="1293.63" cy="99.36" r="12.5"/><circle cx="1293.63" cy="73.36" r="12.5"/><circle cx="1293.63" cy="47.36" r="12.5"/><circle cx="1293.63" cy="21.36" r="12.5"/><circle cx="1267.63" cy="801.36" r="12.5"/><circle cx="1267.63" cy="775.36" r="12.5"/><circle cx="1267.63" cy="749.36" r="12.5"/><circle cx="1267.63" cy="723.36" r="12.5"/><circle cx="1267.63" cy="697.36" r="12.5"/><circle cx="1267.63" cy="671.36" r="12.5"/><circle cx="1267.63" cy="645.36" r="12.5"/><circle cx="1267.63" cy="619.36" r="12.5"/><circle cx="1267.63" cy="593.36" r="12.5"/><circle cx="1267.63" cy="567.36" r="12.5"/><circle cx="1267.63" cy="541.36" r="12.5"/><circle cx="1267.63" cy="515.36" r="12.5"/><circle cx="1267.63" cy="489.36" r="12.5"/><circle cx="1267.63" cy="463.36" r="12.5"/><circle cx="1267.63" cy="437.36" r="12.5"/><circle cx="1267.63" cy="411.36" r="12.5"/><circle cx="1267.63" cy="385.36" r="12.5"/><circle cx="1267.63" cy="359.36" r="12.5"/><circle cx="1267.63" cy="333.36" r="12.5"/><circle cx="1267.63" cy="307.36" r="12.5"/><circle cx="1267.63" cy="281.36" r="12.5"/><circle cx="1267.63" cy="255.36" r="12.5"/><circle cx="1267.63" cy="229.36" r="12.5"/><circle cx="1267.63" cy="203.36" r="12.5"/><circle cx="1267.63" cy="177.36" r="12.5"/><circle cx="1267.63" cy="151.36" r="12.5"/><circle cx="1267.63" cy="125.36" r="12.5"/><circle cx="1267.63" cy="99.36" r="12.5"/><circle cx="1267.63" cy="73.36" r="12.5"/><circle cx="1267.63" cy="47.36" r="12.5"/><circle cx="1267.63" cy="21.36" r="12.5"/><circle cx="1241.63" cy="801.36" r="12.5"/><circle cx="1241.63" cy="775.36" r="12.5"/><circle cx="1241.63" cy="749.36" r="12.5"/><circle cx="1241.63" cy="723.36" r="12.5"/><circle cx="1241.63" cy="697.36" r="12.5"/><circle cx="1241.63" cy="671.36" r="12.5"/><circle cx="1241.63" cy="645.36" r="12.5"/><circle cx="1241.63" cy="619.36" r="12.5"/><circle cx="1241.63" cy="593.36" r="12.5"/><circle cx="1241.63" cy="567.36" r="12.5"/><circle cx="1241.63" cy="541.36" r="12.5"/><circle cx="1241.63" cy="515.36" r="12.5"/><circle cx="1241.63" cy="489.36" r="12.5"/><circle cx="1241.63" cy="463.36" r="12.5"/><circle cx="1241.63" cy="437.36" r="12.5"/><circle cx="1241.63" cy="411.36" r="12.5"/><circle cx="1241.63" cy="385.36" r="12.5"/><circle cx="1241.63" cy="359.36" r="12.5"/><circle cx="1241.63" cy="333.36" r="12.5"/><circle cx="1241.63" cy="307.36" r="12.5"/><circle cx="1241.63" cy="281.36" r="12.5"/><circle cx="1241.63" cy="255.36" r="12.5"/><circle cx="1241.63" cy="229.36" r="12.5"/><circle cx="1241.63" cy="203.36" r="12.5"/><circle cx="1241.63" cy="177.36" r="12.5"/><circle cx="1241.63" cy="151.36" r="12.5"/><circle cx="1241.63" cy="125.36" r="12.5"/><circle cx="1241.63" cy="99.36" r="12.5"/><circle cx="1241.63" cy="73.36" r="12.5"/><circle cx="1241.63" cy="47.36" r="12.5"/><circle cx="1241.63" cy="21.36" r="12.5"/><circle cx="1215.63" cy="801.36" r="12.5"/><circle cx="1215.63" cy="775.36" r="12.5"/><circle cx="1215.63" cy="749.36" r="12.5"/><circle cx="1215.63" cy="723.36" r="12.5"/><circle cx="1215.63" cy="697.36" r="12.5"/><circle cx="1215.63" cy="671.36" r="12.5"/><circle cx="1215.63" cy="645.36" r="12.5"/><circle cx="1215.63" cy="619.36" r="12.5"/><circle cx="1215.63" cy="593.36" r="12.5"/><circle cx="1215.63" cy="567.36" r="12.5"/><circle cx="1215.63" cy="541.36" r="12.5"/><circle cx="1215.63" cy="515.36" r="12.5"/><circle cx="1215.63" cy="489.36" r="12.5"/><circle cx="1215.63" cy="463.36" r="12.5"/><circle cx="1215.63" cy="437.36" r="12.5"/><circle cx="1215.63" cy="411.36" r="12.5"/><circle cx="1215.63" cy="385.36" r="12.5"/><circle cx="1215.63" cy="359.36" r="12.5"/><circle cx="1215.63" cy="333.36" r="12.5"/><circle cx="1215.63" cy="307.36" r="12.5"/><circle cx="1215.63" cy="281.36" r="12.5"/><circle cx="1215.63" cy="255.36" r="12.5"/><circle cx="1215.63" cy="229.36" r="12.5"/><circle cx="1215.63" cy="203.36" r="12.5"/><circle cx="1215.63" cy="177.36" r="12.5"/><circle cx="1215.63" cy="151.36" r="12.5"/><circle cx="1215.63" cy="125.36" r="12.5"/><circle cx="1215.63" cy="99.36" r="12.5"/><circle cx="1215.63" cy="73.36" r="12.5"/><circle cx="1215.63" cy="47.36" r="12.5"/><circle cx="1215.63" cy="21.36" r="12.5"/><circle cx="1189.63" cy="801.36" r="12.5"/><circle cx="1189.63" cy="775.36" r="12.5"/><circle cx="1189.63" cy="749.36" r="12.5"/><circle cx="1189.63" cy="723.36" r="12.5"/><circle cx="1189.63" cy="697.36" r="12.5"/><circle cx="1189.63" cy="671.36" r="12.5"/><circle cx="1189.63" cy="645.36" r="12.5"/><circle cx="1189.63" cy="619.36" r="12.5"/><circle cx="1189.63" cy="593.36" r="12.5"/><circle cx="1189.63" cy="567.36" r="12.5"/><circle cx="1189.63" cy="541.36" r="12.5"/><circle cx="1189.63" cy="515.36" r="12.5"/><circle cx="1189.63" cy="489.36" r="12.5"/><circle cx="1189.63" cy="463.36" r="12.5"/><circle cx="1189.63" cy="437.36" r="12.5"/><circle cx="1189.63" cy="411.36" r="12.5"/><circle cx="1189.63" cy="385.36" r="12.5"/><circle cx="1189.63" cy="359.36" r="12.5"/><circle cx="1189.63" cy="333.36" r="12.5"/><circle cx="1189.63" cy="307.36" r="12.5"/><circle cx="1189.63" cy="281.36" r="12.5"/><circle cx="1189.63" cy="255.36" r="12.5"/><circle cx="1189.63" cy="229.36" r="12.5"/><circle cx="1189.63" cy="203.36" r="12.5"/><circle cx="1189.63" cy="177.36" r="12.5"/><circle cx="1189.63" cy="151.36" r="12.5"/><circle cx="1189.63" cy="125.36" r="12.5"/><circle cx="1189.63" cy="99.36" r="12.5"/><circle cx="1189.63" cy="73.36" r="12.5"/><circle cx="1189.63" cy="47.36" r="12.5"/><circle cx="1189.63" cy="21.36" r="12.5"/><circle cx="1163.63" cy="801.36" r="12.5"/><circle cx="1163.63" cy="775.36" r="12.5"/><circle cx="1163.63" cy="749.36" r="12.5"/><circle cx="1163.63" cy="723.36" r="12.5"/><circle cx="1163.63" cy="697.36" r="12.5"/><circle cx="1163.63" cy="671.36" r="12.5"/><circle cx="1163.63" cy="645.36" r="12.5"/><circle cx="1163.63" cy="619.36" r="12.5"/><circle cx="1163.63" cy="593.36" r="12.5"/><circle cx="1163.63" cy="567.36" r="12.5"/><circle cx="1163.63" cy="541.36" r="12.5"/><circle cx="1163.63" cy="515.36" r="12.5"/><circle cx="1163.63" cy="489.36" r="12.5"/><circle cx="1163.63" cy="463.36" r="12.5"/><circle cx="1163.63" cy="437.36" r="12.5"/><circle cx="1163.63" cy="411.36" r="12.5"/><circle cx="1163.63" cy="385.36" r="12.5"/><circle cx="1163.63" cy="359.36" r="12.5"/><circle cx="1163.63" cy="333.36" r="12.5"/><circle cx="1163.63" cy="307.36" r="12.5"/><circle cx="1163.63" cy="281.36" r="12.5"/><circle cx="1163.63" cy="255.36" r="12.5"/><circle cx="1163.63" cy="229.36" r="12.5"/><circle cx="1163.63" cy="203.36" r="12.5"/><circle cx="1163.63" cy="177.36" r="12.5"/><circle cx="1163.63" cy="151.36" r="12.5"/><circle cx="1163.63" cy="125.36" r="12.5"/><circle cx="1163.63" cy="99.36" r="12.5"/><circle cx="1163.63" cy="73.36" r="12.5"/><circle cx="1163.63" cy="47.36" r="12.5"/><circle cx="1163.63" cy="21.36" r="12.5"/><circle cx="1137.63" cy="801.36" r="12.5"/><circle cx="1137.63" cy="775.36" r="12.5"/><circle cx="1137.63" cy="749.36" r="12.5"/><circle cx="1137.63" cy="723.36" r="12.5"/><circle cx="1137.63" cy="697.36" r="12.5"/><circle cx="1137.63" cy="671.36" r="12.5"/><circle cx="1137.63" cy="645.36" r="12.5"/><circle cx="1137.63" cy="619.36" r="12.5"/><circle cx="1137.63" cy="593.36" r="12.5"/><circle cx="1137.63" cy="567.36" r="12.5"/><circle cx="1137.63" cy="541.36" r="12.5"/><circle cx="1137.63" cy="515.36" r="12.5"/><circle cx="1137.63" cy="489.36" r="12.5"/><circle cx="1137.63" cy="463.36" r="12.5"/><circle cx="1137.63" cy="437.36" r="12.5"/><circle cx="1137.63" cy="411.36" r="12.5"/><circle cx="1137.63" cy="385.36" r="12.5"/><circle cx="1137.63" cy="359.36" r="12.5"/><circle cx="1137.63" cy="333.36" r="12.5"/><circle cx="1137.63" cy="307.36" r="12.5"/><circle cx="1137.63" cy="281.36" r="12.5"/><circle cx="1137.63" cy="255.36" r="12.5"/><circle cx="1137.63" cy="229.36" r="12.5"/><circle cx="1137.63" cy="203.36" r="12.5"/><circle cx="1137.63" cy="177.36" r="12.5"/><circle cx="1137.63" cy="151.36" r="12.5"/><circle cx="1137.63" cy="125.36" r="12.5"/><circle cx="1137.63" cy="99.36" r="12.5"/><circle cx="1137.63" cy="73.36" r="12.5"/><circle cx="1137.63" cy="47.36" r="12.5"/><circle cx="1137.63" cy="21.36" r="12.5"/><circle cx="1111.63" cy="801.36" r="12.5"/><circle cx="1111.63" cy="775.36" r="12.5"/><circle cx="1111.63" cy="749.36" r="12.5"/><circle cx="1111.63" cy="723.36" r="12.5"/><circle cx="1111.63" cy="697.36" r="12.5"/><circle cx="1111.63" cy="671.36" r="12.5"/><circle cx="1111.63" cy="645.36" r="12.5"/><circle cx="1111.63" cy="619.36" r="12.5"/><circle cx="1111.63" cy="593.36" r="12.5"/><circle cx="1111.63" cy="567.36" r="12.5"/><circle cx="1111.63" cy="541.36" r="12.5"/><circle cx="1111.63" cy="515.36" r="12.5"/><circle cx="1111.63" cy="489.36" r="12.5"/><circle cx="1111.63" cy="463.36" r="12.5"/><circle cx="1111.63" cy="437.36" r="12.5"/><circle cx="1111.63" cy="411.36" r="12.5"/><circle cx="1111.63" cy="385.36" r="12.5"/><circle cx="1111.63" cy="359.36" r="12.5"/><circle cx="1111.63" cy="333.36" r="12.5"/><circle cx="1111.63" cy="307.36" r="12.5"/><circle cx="1111.63" cy="281.36" r="12.5"/><circle cx="1111.63" cy="255.36" r="12.5"/><circle cx="1111.63" cy="229.36" r="12.5"/><circle cx="1111.63" cy="203.36" r="12.5"/><circle cx="1111.63" cy="177.36" r="12.5"/><circle cx="1111.63" cy="151.36" r="12.5"/><circle cx="1111.63" cy="125.36" r="12.5"/><circle cx="1111.63" cy="99.36" r="12.5"/><circle cx="1111.63" cy="73.36" r="12.5"/><circle cx="1111.63" cy="47.36" r="12.5"/><circle cx="1111.63" cy="21.36" r="12.5"/><circle cx="1085.63" cy="801.36" r="12.5"/><circle cx="1085.63" cy="775.36" r="12.5"/><circle cx="1085.63" cy="749.36" r="12.5"/><circle cx="1085.63" cy="723.36" r="12.5"/><circle cx="1085.63" cy="697.36" r="12.5"/><circle cx="1085.63" cy="671.36" r="12.5"/><circle cx="1085.63" cy="645.36" r="12.5"/><circle cx="1085.63" cy="619.36" r="12.5"/><circle cx="1085.63" cy="593.36" r="12.5"/><circle cx="1085.63" cy="567.36" r="12.5"/><circle cx="1085.63" cy="541.36" r="12.5"/><circle cx="1085.63" cy="515.36" r="12.5"/><circle cx="1085.63" cy="489.36" r="12.5"/><circle cx="1085.63" cy="463.36" r="12.5"/><circle cx="1085.63" cy="437.36" r="12.5"/><circle cx="1085.63" cy="411.36" r="12.5"/><circle cx="1085.63" cy="385.36" r="12.5"/><circle cx="1085.63" cy="359.36" r="12.5"/><circle cx="1085.63" cy="333.36" r="12.5"/><circle cx="1085.63" cy="307.36" r="12.5"/><circle cx="1085.63" cy="281.36" r="12.5"/><circle cx="1085.63" cy="255.36" r="12.5"/><circle cx="1085.63" cy="229.36" r="12.5"/><circle cx="1085.63" cy="203.36" r="12.5"/><circle cx="1085.63" cy="177.36" r="12.5"/><circle cx="1085.63" cy="151.36" r="12.5"/><circle cx="1085.63" cy="125.36" r="12.5"/><circle cx="1085.63" cy="99.36" r="12.5"/><circle cx="1085.63" cy="73.36" r="12.5"/><circle cx="1085.63" cy="47.36" r="12.5"/><circle cx="1085.63" cy="21.36" r="12.5"/><circle cx="1059.63" cy="801.36" r="12.5"/><circle cx="1059.63" cy="775.36" r="12.5"/><circle cx="1059.63" cy="749.36" r="12.5"/><circle cx="1059.63" cy="723.36" r="12.5"/><circle cx="1059.63" cy="697.36" r="12.5"/><circle cx="1059.63" cy="671.36" r="12.5"/><circle cx="1059.63" cy="645.36" r="12.5"/><circle cx="1059.63" cy="619.36" r="12.5"/><circle cx="1059.63" cy="593.36" r="12.5"/><circle cx="1059.63" cy="567.36" r="12.5"/><circle cx="1059.63" cy="541.36" r="12.5"/><circle cx="1059.63" cy="515.36" r="12.5"/><circle cx="1059.63" cy="489.36" r="12.5"/><circle cx="1059.63" cy="463.36" r="12.5"/><circle cx="1059.63" cy="437.36" r="12.5"/><circle cx="1059.63" cy="411.36" r="12.5"/><circle cx="1059.63" cy="385.36" r="12.5"/><circle cx="1059.63" cy="359.36" r="12.5"/><circle cx="1059.63" cy="333.36" r="12.5"/><circle cx="1059.63" cy="307.36" r="12.5"/><circle cx="1059.63" cy="281.36" r="12.5"/><circle cx="1059.63" cy="255.36" r="12.5"/><circle cx="1059.63" cy="229.36" r="12.5"/><circle cx="1059.63" cy="203.36" r="12.5"/><circle cx="1059.63" cy="177.36" r="12.5"/><circle cx="1059.63" cy="151.36" r="12.5"/><circle cx="1059.63" cy="125.36" r="12.5"/><circle cx="1059.63" cy="99.36" r="12.5"/><circle cx="1059.63" cy="73.36" r="12.5"/><circle cx="1059.63" cy="47.36" r="12.5"/><circle cx="1059.63" cy="21.36" r="12.5"/><circle cx="1033.63" cy="801.36" r="12.5"/><circle cx="1033.63" cy="775.36" r="12.5"/><circle cx="1033.63" cy="749.36" r="12.5"/><circle cx="1033.63" cy="723.36" r="12.5"/><circle cx="1033.63" cy="697.36" r="12.5"/><circle cx="1033.63" cy="671.36" r="12.5"/><circle cx="1033.63" cy="645.36" r="12.5"/><circle cx="1033.63" cy="619.36" r="12.5"/><circle cx="1033.63" cy="593.36" r="12.5"/><circle cx="1033.63" cy="567.36" r="12.5"/><circle cx="1033.63" cy="541.36" r="12.5"/><circle cx="1033.63" cy="515.36" r="12.5"/><circle cx="1033.63" cy="489.36" r="12.5"/><circle cx="1033.63" cy="463.36" r="12.5"/><circle cx="1033.63" cy="437.36" r="12.5"/><circle cx="1033.63" cy="411.36" r="12.5"/><circle cx="1033.63" cy="385.36" r="12.5"/><circle cx="1033.63" cy="359.36" r="12.5"/><circle cx="1033.63" cy="333.36" r="12.5"/><circle cx="1033.63" cy="307.36" r="12.5"/><circle cx="1033.63" cy="281.36" r="12.5"/><circle cx="1033.63" cy="255.36" r="12.5"/><circle cx="1033.63" cy="229.36" r="12.5"/><circle cx="1033.63" cy="203.36" r="12.5"/><circle cx="1033.63" cy="177.36" r="12.5"/><circle cx="1033.63" cy="151.36" r="12.5"/><circle cx="1033.63" cy="125.36" r="12.5"/><circle cx="1033.63" cy="99.36" r="12.5"/><circle cx="1033.63" cy="73.36" r="12.5"/><circle cx="1033.63" cy="47.36" r="12.5"/><circle cx="1033.63" cy="21.36" r="12.5"/><circle cx="1007.63" cy="801.36" r="12.5"/><circle cx="1007.63" cy="775.36" r="12.5"/><circle cx="1007.63" cy="749.36" r="12.5"/><circle cx="1007.63" cy="723.36" r="12.5"/><circle cx="1007.63" cy="697.36" r="12.5"/><circle cx="1007.63" cy="671.36" r="12.5"/><circle cx="1007.63" cy="645.36" r="12.5"/><circle cx="1007.63" cy="619.36" r="12.5"/><circle cx="1007.63" cy="593.36" r="12.5"/><circle cx="1007.63" cy="567.36" r="12.5"/><circle cx="1007.63" cy="541.36" r="12.5"/><circle cx="1007.63" cy="515.36" r="12.5"/><circle cx="1007.63" cy="489.36" r="12.5"/><circle cx="1007.63" cy="463.36" r="12.5"/><circle cx="1007.63" cy="437.36" r="12.5"/><circle cx="1007.63" cy="411.36" r="12.5"/><circle cx="1007.63" cy="385.36" r="12.5"/><circle cx="1007.63" cy="359.36" r="12.5"/><circle cx="1007.63" cy="333.36" r="12.5"/><circle cx="1007.63" cy="307.36" r="12.5"/><circle cx="1007.63" cy="281.36" r="12.5"/><circle cx="1007.63" cy="255.36" r="12.5"/><circle cx="1007.63" cy="229.36" r="12.5"/><circle cx="1007.63" cy="203.36" r="12.5"/><circle cx="1007.63" cy="177.36" r="12.5"/><circle cx="1007.63" cy="151.36" r="12.5"/><circle cx="1007.63" cy="125.36" r="12.5"/><circle cx="1007.63" cy="99.36" r="12.5"/><circle cx="1007.63" cy="73.36" r="12.5"/><circle cx="1007.63" cy="47.36" r="12.5"/><circle cx="1007.63" cy="21.36" r="12.5"/><circle cx="981.63" cy="801.36" r="12.5"/><circle cx="981.63" cy="775.36" r="12.5"/><circle cx="981.63" cy="749.36" r="12.5"/><circle cx="981.63" cy="723.36" r="12.5"/><circle cx="981.63" cy="697.36" r="12.5"/><circle cx="981.63" cy="671.36" r="12.5"/><circle cx="981.63" cy="645.36" r="12.5"/><circle cx="981.63" cy="619.36" r="12.5"/><circle cx="981.63" cy="593.36" r="12.5"/><circle cx="981.63" cy="567.36" r="12.5"/><circle cx="981.63" cy="541.36" r="12.5"/><circle cx="981.63" cy="515.36" r="12.5"/><circle cx="981.63" cy="489.36" r="12.5"/><circle cx="981.63" cy="463.36" r="12.5"/><circle cx="981.63" cy="437.36" r="12.5"/><circle cx="981.63" cy="411.36" r="12.5"/><circle cx="981.63" cy="385.36" r="12.5"/><circle cx="981.63" cy="359.36" r="12.5"/><circle cx="981.63" cy="333.36" r="12.5"/><circle cx="981.63" cy="307.36" r="12.5"/><circle cx="981.63" cy="281.36" r="12.5"/><circle cx="981.63" cy="255.36" r="12.5"/><circle cx="981.63" cy="229.36" r="12.5"/><circle cx="981.63" cy="203.36" r="12.5"/><circle cx="981.63" cy="177.36" r="12.5"/><circle cx="981.63" cy="151.36" r="12.5"/><circle cx="981.63" cy="125.36" r="12.5"/><circle cx="981.63" cy="99.36" r="12.5"/><circle cx="981.63" cy="73.36" r="12.5"/><circle cx="981.63" cy="47.36" r="12.5"/><circle cx="981.63" cy="21.36" r="12.5"/><circle cx="955.63" cy="801.36" r="12.5"/><circle cx="955.63" cy="775.36" r="12.5"/><circle cx="955.63" cy="749.36" r="12.5"/><circle cx="955.63" cy="723.36" r="12.5"/><circle cx="955.63" cy="697.36" r="12.5"/><circle cx="955.63" cy="671.36" r="12.5"/><circle cx="955.63" cy="645.36" r="12.5"/><circle cx="955.63" cy="619.36" r="12.5"/><circle cx="955.63" cy="593.36" r="12.5"/><circle cx="955.63" cy="567.36" r="12.5"/><circle cx="955.63" cy="541.36" r="12.5"/><circle cx="955.63" cy="515.36" r="12.5"/><circle cx="955.63" cy="489.36" r="12.5"/><circle cx="955.63" cy="463.36" r="12.5"/><circle cx="955.63" cy="437.36" r="12.5"/><circle cx="955.63" cy="411.36" r="12.5"/><circle cx="955.63" cy="385.36" r="12.5"/><circle cx="955.63" cy="359.36" r="12.5"/><circle cx="955.63" cy="333.36" r="12.5"/><circle cx="955.63" cy="307.36" r="12.5"/><circle cx="955.63" cy="281.36" r="12.5"/><circle cx="955.63" cy="255.36" r="12.5"/><circle cx="955.63" cy="229.36" r="12.5"/><circle cx="955.63" cy="203.36" r="12.5"/><circle cx="955.63" cy="177.36" r="12.5"/><circle cx="955.63" cy="151.36" r="12.5"/><circle cx="955.63" cy="125.36" r="12.5"/><circle cx="955.63" cy="99.36" r="12.5"/><circle cx="955.63" cy="73.36" r="12.5"/><circle cx="955.63" cy="47.36" r="12.5"/><circle cx="955.63" cy="21.36" r="12.5"/><circle cx="929.63" cy="801.36" r="12.5"/><circle cx="929.63" cy="775.36" r="12.5"/><circle cx="929.63" cy="749.36" r="12.5"/><circle cx="929.63" cy="723.36" r="12.5"/><circle cx="929.63" cy="697.36" r="12.5"/><circle cx="929.63" cy="671.36" r="12.5"/><circle cx="929.63" cy="645.36" r="12.5"/><circle cx="929.63" cy="619.36" r="12.5"/><circle cx="929.63" cy="593.36" r="12.5"/><circle cx="929.63" cy="567.36" r="12.5"/><circle cx="929.63" cy="541.36" r="12.5"/><circle cx="929.63" cy="515.36" r="12.5"/><circle cx="929.63" cy="489.36" r="12.5"/><circle cx="929.63" cy="463.36" r="12.5"/><circle cx="929.63" cy="437.36" r="12.5"/><circle cx="929.63" cy="411.36" r="12.5"/><circle cx="929.63" cy="385.36" r="12.5"/><circle cx="929.63" cy="359.36" r="12.5"/><circle cx="929.63" cy="333.36" r="12.5"/><circle cx="929.63" cy="307.36" r="12.5"/><circle cx="929.63" cy="281.36" r="12.5"/><circle cx="929.63" cy="255.36" r="12.5"/><circle cx="929.63" cy="229.36" r="12.5"/><circle cx="929.63" cy="203.36" r="12.5"/><circle cx="929.63" cy="177.36" r="12.5"/><circle cx="929.63" cy="151.36" r="12.5"/><circle cx="929.63" cy="125.36" r="12.5"/><circle cx="929.63" cy="99.36" r="12.5"/><circle cx="929.63" cy="73.36" r="12.5"/><circle cx="929.63" cy="47.36" r="12.5"/><circle cx="929.63" cy="21.36" r="12.5"/><circle cx="903.63" cy="801.36" r="12.5"/><circle cx="903.63" cy="775.36" r="12.5"/><circle cx="903.63" cy="749.36" r="12.5"/><circle cx="903.63" cy="723.36" r="12.5"/><circle cx="903.63" cy="697.36" r="12.5"/><circle cx="903.63" cy="671.36" r="12.5"/><circle cx="903.63" cy="645.36" r="12.5"/><circle cx="903.63" cy="619.36" r="12.5"/><circle cx="903.63" cy="593.36" r="12.5"/><circle cx="903.63" cy="567.36" r="12.5"/><circle cx="903.63" cy="541.36" r="12.5"/><circle cx="903.63" cy="515.36" r="12.5"/><circle cx="903.63" cy="489.36" r="12.5"/><circle cx="903.63" cy="463.36" r="12.5"/><circle cx="903.63" cy="437.36" r="12.5"/><circle cx="903.63" cy="411.36" r="12.5"/><circle cx="903.63" cy="385.36" r="12.5"/><circle cx="903.63" cy="359.36" r="12.5"/><circle cx="903.63" cy="333.36" r="12.5"/><circle cx="903.63" cy="307.36" r="12.5"/><circle cx="903.63" cy="281.36" r="12.5"/><circle cx="903.63" cy="255.36" r="12.5"/><circle cx="903.63" cy="229.36" r="12.5"/><circle cx="903.63" cy="203.36" r="12.5"/><circle cx="903.63" cy="177.36" r="12.5"/><circle cx="903.63" cy="151.36" r="12.5"/><circle cx="903.63" cy="125.36" r="12.5"/><circle cx="903.63" cy="99.36" r="12.5"/><circle cx="903.63" cy="73.36" r="12.5"/><circle cx="903.63" cy="47.36" r="12.5"/><circle cx="903.63" cy="21.36" r="12.5"/><circle cx="877.63" cy="801.36" r="12.5"/><circle cx="877.63" cy="775.36" r="12.5"/><circle cx="877.63" cy="749.36" r="12.5"/><circle cx="877.63" cy="723.36" r="12.5"/><circle cx="877.63" cy="697.36" r="12.5"/><circle cx="877.63" cy="671.36" r="12.5"/><circle cx="877.63" cy="645.36" r="12.5"/><circle cx="877.63" cy="619.36" r="12.5"/><circle cx="877.63" cy="593.36" r="12.5"/><circle cx="877.63" cy="567.36" r="12.5"/><circle cx="877.63" cy="541.36" r="12.5"/><circle cx="877.63" cy="515.36" r="12.5"/><circle cx="877.63" cy="489.36" r="12.5"/><circle cx="877.63" cy="463.36" r="12.5"/><circle cx="877.63" cy="437.36" r="12.5"/><circle cx="877.63" cy="411.36" r="12.5"/><circle cx="877.63" cy="385.36" r="12.5"/><circle cx="877.63" cy="359.36" r="12.5"/><circle cx="877.63" cy="333.36" r="12.5"/><circle cx="877.63" cy="307.36" r="12.5"/><circle cx="877.63" cy="281.36" r="12.5"/><circle cx="877.63" cy="255.36" r="12.5"/><circle cx="877.63" cy="229.36" r="12.5"/><circle cx="877.63" cy="203.36" r="12.5"/><circle cx="877.63" cy="177.36" r="12.5"/><circle cx="877.63" cy="151.36" r="12.5"/><circle cx="877.63" cy="125.36" r="12.5"/><circle cx="877.63" cy="99.36" r="12.5"/><circle cx="877.63" cy="73.36" r="12.5"/><circle cx="877.63" cy="47.36" r="12.5"/><circle cx="877.63" cy="21.36" r="12.5"/><circle cx="851.63" cy="801.36" r="12.5"/><circle cx="851.63" cy="775.36" r="12.5"/><circle cx="851.63" cy="749.36" r="12.5"/><circle cx="851.63" cy="723.36" r="12.5"/><circle cx="851.63" cy="697.36" r="12.5"/><circle cx="851.63" cy="671.36" r="12.5"/><circle cx="851.63" cy="645.36" r="12.5"/><circle cx="851.63" cy="619.36" r="12.5"/><circle cx="851.63" cy="593.36" r="12.5"/><circle cx="851.63" cy="567.36" r="12.5"/><circle cx="851.63" cy="541.36" r="12.5"/><circle cx="851.63" cy="515.36" r="12.5"/><circle cx="851.63" cy="489.36" r="12.5"/><circle cx="851.63" cy="463.36" r="12.5"/><circle cx="851.63" cy="437.36" r="12.5"/><circle cx="851.63" cy="411.36" r="12.5"/><circle cx="851.63" cy="385.36" r="12.5"/><circle cx="851.63" cy="359.36" r="12.5"/><circle cx="851.63" cy="333.36" r="12.5"/><circle cx="851.63" cy="307.36" r="12.5"/><circle cx="851.63" cy="281.36" r="12.5"/><circle cx="851.63" cy="255.36" r="12.5"/><circle cx="851.63" cy="229.36" r="12.5"/><circle cx="851.63" cy="203.36" r="12.5"/><circle cx="851.63" cy="177.36" r="12.5"/><circle cx="851.63" cy="151.36" r="12.5"/><circle cx="851.63" cy="125.36" r="12.5"/><circle cx="851.63" cy="99.36" r="12.5"/><circle cx="851.63" cy="73.36" r="12.5"/><circle cx="851.63" cy="47.36" r="12.5"/><circle cx="851.63" cy="21.36" r="12.5"/><circle cx="825.63" cy="801.36" r="12.5"/><circle cx="825.63" cy="775.36" r="12.5"/><circle cx="825.63" cy="749.36" r="12.5"/><circle cx="825.63" cy="723.36" r="12.5"/><circle cx="825.63" cy="697.36" r="12.5"/><circle cx="825.63" cy="671.36" r="12.5"/><circle cx="825.63" cy="645.36" r="12.5"/><circle cx="825.63" cy="619.36" r="12.5"/><circle cx="825.63" cy="593.36" r="12.5"/><circle cx="825.63" cy="567.36" r="12.5"/><circle cx="825.63" cy="541.36" r="12.5"/><circle cx="825.63" cy="515.36" r="12.5"/><circle cx="825.63" cy="489.36" r="12.5"/><circle cx="825.63" cy="463.36" r="12.5"/><circle cx="825.63" cy="437.36" r="12.5"/><circle cx="825.63" cy="411.36" r="12.5"/><circle cx="825.63" cy="385.36" r="12.5"/><circle cx="825.63" cy="359.36" r="12.5"/><circle cx="825.63" cy="333.36" r="12.5"/><circle cx="825.63" cy="307.36" r="12.5"/><circle cx="825.63" cy="281.36" r="12.5"/><circle cx="825.63" cy="255.36" r="12.5"/><circle cx="825.63" cy="229.36" r="12.5"/><circle cx="825.63" cy="203.36" r="12.5"/><circle cx="825.63" cy="177.36" r="12.5"/><circle cx="825.63" cy="151.36" r="12.5"/><circle cx="825.63" cy="125.36" r="12.5"/><circle cx="825.63" cy="99.36" r="12.5"/><circle cx="825.63" cy="73.36" r="12.5"/><circle cx="825.63" cy="47.36" r="12.5"/><circle cx="825.63" cy="21.36" r="12.5"/><circle cx="799.63" cy="801.36" r="12.5"/><circle cx="799.63" cy="775.36" r="12.5"/><circle cx="799.63" cy="749.36" r="12.5"/><circle cx="799.63" cy="723.36" r="12.5"/><circle cx="799.63" cy="697.36" r="12.5"/><circle cx="799.63" cy="671.36" r="12.5"/><circle cx="799.63" cy="645.36" r="12.5"/><circle cx="799.63" cy="619.36" r="12.5"/><circle cx="799.63" cy="593.36" r="12.5"/><circle cx="799.63" cy="567.36" r="12.5"/><circle cx="799.63" cy="541.36" r="12.5"/><circle cx="799.63" cy="515.36" r="12.5"/><circle cx="799.63" cy="489.36" r="12.5"/><circle cx="799.63" cy="463.36" r="12.5"/><circle cx="799.63" cy="437.36" r="12.5"/><circle cx="799.63" cy="411.36" r="12.5"/><circle cx="799.63" cy="385.36" r="12.5"/><circle cx="799.63" cy="359.36" r="12.5"/><circle cx="799.63" cy="333.36" r="12.5"/><circle cx="799.63" cy="307.36" r="12.5"/><circle cx="799.63" cy="281.36" r="12.5"/><circle cx="799.63" cy="255.36" r="12.5"/><circle cx="799.63" cy="229.36" r="12.5"/><circle cx="799.63" cy="203.36" r="12.5"/><circle cx="799.63" cy="177.36" r="12.5"/><circle cx="799.63" cy="151.36" r="12.5"/><circle cx="799.63" cy="125.36" r="12.5"/><circle cx="799.63" cy="99.36" r="12.5"/><circle cx="799.63" cy="73.36" r="12.5"/><circle cx="799.63" cy="47.36" r="12.5"/><circle cx="799.63" cy="21.36" r="12.5"/><circle cx="773.63" cy="801.36" r="12.5"/><circle cx="773.63" cy="775.36" r="12.5"/><circle cx="773.63" cy="749.36" r="12.5"/><circle cx="773.63" cy="723.36" r="12.5"/><circle cx="773.63" cy="697.36" r="12.5"/><circle cx="773.63" cy="671.36" r="12.5"/><circle cx="773.63" cy="645.36" r="12.5"/><circle cx="773.63" cy="619.36" r="12.5"/><circle cx="773.63" cy="593.36" r="12.5"/><circle cx="773.63" cy="567.36" r="12.5"/><circle cx="773.63" cy="541.36" r="12.5"/><circle cx="773.63" cy="515.36" r="12.5"/><circle cx="773.63" cy="489.36" r="12.5"/><circle cx="773.63" cy="463.36" r="12.5"/><circle cx="773.63" cy="437.36" r="12.5"/><circle cx="773.63" cy="411.36" r="12.5"/><circle cx="773.63" cy="385.36" r="12.5"/><circle cx="773.63" cy="359.36" r="12.5"/><circle cx="773.63" cy="333.36" r="12.5"/><circle cx="773.63" cy="307.36" r="12.5"/><circle cx="773.63" cy="281.36" r="12.5"/><circle cx="773.63" cy="255.36" r="12.5"/><circle cx="773.63" cy="229.36" r="12.5"/><circle cx="773.63" cy="203.36" r="12.5"/><circle cx="773.63" cy="177.36" r="12.5"/><circle cx="773.63" cy="151.36" r="12.5"/><circle cx="773.63" cy="125.36" r="12.5"/><circle cx="773.63" cy="99.36" r="12.5"/><circle cx="773.63" cy="73.36" r="12.5"/><circle cx="773.63" cy="47.36" r="12.5"/><circle cx="773.63" cy="21.36" r="12.5"/><circle cx="747.63" cy="801.36" r="12.5"/><circle cx="747.63" cy="775.36" r="12.5"/><circle cx="747.63" cy="749.36" r="12.5"/><circle cx="747.63" cy="723.36" r="12.5"/><circle cx="747.63" cy="697.36" r="12.5"/><circle cx="747.63" cy="671.36" r="12.5"/><circle cx="747.63" cy="645.36" r="12.5"/><circle cx="747.63" cy="619.36" r="12.5"/><circle cx="747.63" cy="593.36" r="12.5"/><circle cx="747.63" cy="567.36" r="12.5"/><circle cx="747.63" cy="541.36" r="12.5"/><circle cx="747.63" cy="515.36" r="12.5"/><circle cx="747.63" cy="489.36" r="12.5"/><circle cx="747.63" cy="463.36" r="12.5"/><circle cx="747.63" cy="437.36" r="12.5"/><circle cx="747.63" cy="411.36" r="12.5"/><circle cx="747.63" cy="385.36" r="12.5"/><circle cx="747.63" cy="359.36" r="12.5"/><circle cx="747.63" cy="333.36" r="12.5"/><circle cx="747.63" cy="307.36" r="12.5"/><circle cx="747.63" cy="281.36" r="12.5"/><circle cx="747.63" cy="255.36" r="12.5"/><circle cx="747.63" cy="229.36" r="12.5"/><circle cx="747.63" cy="203.36" r="12.5"/><circle cx="747.63" cy="177.36" r="12.5"/><circle cx="747.63" cy="151.36" r="12.5"/><circle cx="747.63" cy="125.36" r="12.5"/><circle cx="747.63" cy="99.36" r="12.5"/><circle cx="747.63" cy="73.36" r="12.5"/><circle cx="747.63" cy="47.36" r="12.5"/><circle cx="747.63" cy="21.36" r="12.5"/><circle cx="721.63" cy="801.36" r="12.5"/><circle cx="721.63" cy="775.36" r="12.5"/><circle cx="721.63" cy="749.36" r="12.5"/><circle cx="721.63" cy="723.36" r="12.5"/><circle cx="721.63" cy="697.36" r="12.5"/><circle cx="721.63" cy="671.36" r="12.5"/><circle cx="721.63" cy="645.36" r="12.5"/><circle cx="721.63" cy="619.36" r="12.5"/><circle cx="721.63" cy="593.36" r="12.5"/><circle cx="721.63" cy="567.36" r="12.5"/><circle cx="721.63" cy="541.36" r="12.5"/><circle cx="721.63" cy="515.36" r="12.5"/><circle cx="721.63" cy="489.36" r="12.5"/><circle cx="721.63" cy="463.36" r="12.5"/><circle cx="721.63" cy="437.36" r="12.5"/><circle cx="721.63" cy="411.36" r="12.5"/><circle cx="721.63" cy="385.36" r="12.5"/><circle cx="721.63" cy="359.36" r="12.5"/><circle cx="721.63" cy="333.36" r="12.5"/><circle cx="721.63" cy="307.36" r="12.5"/><circle cx="721.63" cy="281.36" r="12.5"/><circle cx="721.63" cy="255.36" r="12.5"/><circle cx="721.63" cy="229.36" r="12.5"/><circle cx="721.63" cy="203.36" r="12.5"/><circle cx="721.63" cy="177.36" r="12.5"/><circle cx="721.63" cy="151.36" r="12.5"/><circle cx="721.63" cy="125.36" r="12.5"/><circle cx="721.63" cy="99.36" r="12.5"/><circle cx="721.63" cy="73.36" r="12.5"/><circle cx="721.63" cy="47.36" r="12.5"/><circle cx="721.63" cy="21.36" r="12.5"/><circle cx="695.63" cy="801.36" r="12.5"/><circle cx="695.63" cy="775.36" r="12.5"/><circle cx="695.63" cy="749.36" r="12.5"/><circle cx="695.63" cy="723.36" r="12.5"/><circle cx="695.63" cy="697.36" r="12.5"/><circle cx="695.63" cy="671.36" r="12.5"/><circle cx="695.63" cy="645.36" r="12.5"/><circle cx="695.63" cy="619.36" r="12.5"/><circle cx="695.63" cy="593.36" r="12.5"/><circle cx="695.63" cy="567.36" r="12.5"/><circle cx="695.63" cy="541.36" r="12.5"/><circle cx="695.63" cy="515.36" r="12.5"/><circle cx="695.63" cy="489.36" r="12.5"/><circle cx="695.63" cy="463.36" r="12.5"/><circle cx="695.63" cy="437.36" r="12.5"/><circle cx="695.63" cy="411.36" r="12.5"/><circle cx="695.63" cy="385.36" r="12.5"/><circle cx="695.63" cy="359.36" r="12.5"/><circle cx="695.63" cy="333.36" r="12.5"/><circle cx="695.63" cy="307.36" r="12.5"/><circle cx="695.63" cy="281.36" r="12.5"/><circle cx="695.63" cy="255.36" r="12.5"/><circle cx="695.63" cy="229.36" r="12.5"/><circle cx="695.63" cy="203.36" r="12.5"/><circle cx="695.63" cy="177.36" r="12.5"/><circle cx="695.63" cy="151.36" r="12.5"/><circle cx="695.63" cy="125.36" r="12.5"/><circle cx="695.63" cy="99.36" r="12.5"/><circle cx="695.63" cy="73.36" r="12.5"/><circle cx="695.63" cy="47.36" r="12.5"/><circle cx="695.63" cy="21.36" r="12.5"/><circle cx="669.63" cy="801.36" r="12.5"/><circle cx="669.63" cy="775.36" r="12.5"/><circle cx="669.63" cy="749.36" r="12.5"/><circle cx="669.63" cy="723.36" r="12.5"/><circle cx="669.63" cy="697.36" r="12.5"/><circle cx="669.63" cy="671.36" r="12.5"/><circle cx="669.63" cy="645.36" r="12.5"/><circle cx="669.63" cy="619.36" r="12.5"/><circle cx="669.63" cy="593.36" r="12.5"/><circle cx="669.63" cy="567.36" r="12.5"/><circle cx="669.63" cy="541.36" r="12.5"/><circle cx="669.63" cy="515.36" r="12.5"/><circle cx="669.63" cy="489.36" r="12.5"/><circle cx="669.63" cy="463.36" r="12.5"/><circle cx="669.63" cy="437.36" r="12.5"/><circle cx="669.63" cy="411.36" r="12.5"/><circle cx="669.63" cy="385.36" r="12.5"/><circle cx="669.63" cy="359.36" r="12.5"/><circle cx="669.63" cy="333.36" r="12.5"/><circle cx="669.63" cy="307.36" r="12.5"/><circle cx="669.63" cy="281.36" r="12.5"/><circle cx="669.63" cy="255.36" r="12.5"/><circle cx="669.63" cy="229.36" r="12.5"/><circle cx="669.63" cy="203.36" r="12.5"/><circle cx="669.63" cy="177.36" r="12.5"/><circle cx="669.63" cy="151.36" r="12.5"/><circle cx="669.63" cy="125.36" r="12.5"/><circle cx="669.63" cy="99.36" r="12.5"/><circle cx="669.63" cy="73.36" r="12.5"/><circle cx="669.63" cy="47.36" r="12.5"/><circle cx="669.63" cy="21.36" r="12.5"/><circle cx="643.63" cy="801.36" r="12.5"/><circle cx="643.63" cy="775.36" r="12.5"/><circle cx="643.63" cy="749.36" r="12.5"/><circle cx="643.63" cy="723.36" r="12.5"/><circle cx="643.63" cy="697.36" r="12.5"/><circle cx="643.63" cy="671.36" r="12.5"/><circle cx="643.63" cy="645.36" r="12.5"/><circle cx="643.63" cy="619.36" r="12.5"/><circle cx="643.63" cy="593.36" r="12.5"/><circle cx="643.63" cy="567.36" r="12.5"/><circle cx="643.63" cy="541.36" r="12.5"/><circle cx="643.63" cy="515.36" r="12.5"/><circle cx="643.63" cy="489.36" r="12.5"/><circle cx="643.63" cy="463.36" r="12.5"/><circle cx="643.63" cy="437.36" r="12.5"/><circle cx="643.63" cy="411.36" r="12.5"/><circle cx="643.63" cy="385.36" r="12.5"/><circle cx="643.63" cy="359.36" r="12.5"/><circle cx="643.63" cy="333.36" r="12.5"/><circle cx="643.63" cy="307.36" r="12.5"/><circle cx="643.63" cy="281.36" r="12.5"/><circle cx="643.63" cy="255.36" r="12.5"/><circle cx="643.63" cy="229.36" r="12.5"/><circle cx="643.63" cy="203.36" r="12.5"/><circle cx="643.63" cy="177.36" r="12.5"/><circle cx="643.63" cy="151.36" r="12.5"/><circle cx="643.63" cy="125.36" r="12.5"/><circle cx="643.63" cy="99.36" r="12.5"/><circle cx="643.63" cy="73.36" r="12.5"/><circle cx="643.63" cy="47.36" r="12.5"/><circle cx="643.63" cy="21.36" r="12.5"/><circle cx="617.63" cy="801.36" r="12.5"/><circle cx="617.63" cy="775.36" r="12.5"/><circle cx="617.63" cy="749.36" r="12.5"/><circle cx="617.63" cy="723.36" r="12.5"/><circle cx="617.63" cy="697.36" r="12.5"/><circle cx="617.63" cy="671.36" r="12.5"/><circle cx="617.63" cy="645.36" r="12.5"/><circle cx="617.63" cy="619.36" r="12.5"/><circle cx="617.63" cy="593.36" r="12.5"/><circle cx="617.63" cy="567.36" r="12.5"/><circle cx="617.63" cy="541.36" r="12.5"/><circle cx="617.63" cy="515.36" r="12.5"/><circle cx="617.63" cy="489.36" r="12.5"/><circle cx="617.63" cy="463.36" r="12.5"/><circle cx="617.63" cy="437.36" r="12.5"/><circle cx="617.63" cy="411.36" r="12.5"/><circle cx="617.63" cy="385.36" r="12.5"/><circle cx="617.63" cy="359.36" r="12.5"/><circle cx="617.63" cy="333.36" r="12.5"/><circle cx="617.63" cy="307.36" r="12.5"/><circle cx="617.63" cy="281.36" r="12.5"/><circle cx="617.63" cy="255.36" r="12.5"/><circle cx="617.63" cy="229.36" r="12.5"/><circle cx="617.63" cy="203.36" r="12.5"/><circle cx="617.63" cy="177.36" r="12.5"/><circle cx="617.63" cy="151.36" r="12.5"/><circle cx="617.63" cy="125.36" r="12.5"/><circle cx="617.63" cy="99.36" r="12.5"/><circle cx="617.63" cy="73.36" r="12.5"/><circle cx="617.63" cy="47.36" r="12.5"/><circle cx="617.63" cy="21.36" r="12.5"/><circle cx="591.63" cy="801.36" r="12.5"/><circle cx="591.63" cy="775.36" r="12.5"/><circle cx="591.63" cy="749.36" r="12.5"/><circle cx="591.63" cy="723.36" r="12.5"/><circle cx="591.63" cy="697.36" r="12.5"/><circle cx="591.63" cy="671.36" r="12.5"/><circle cx="591.63" cy="645.36" r="12.5"/><circle cx="591.63" cy="619.36" r="12.5"/><circle cx="591.63" cy="593.36" r="12.5"/><circle cx="591.63" cy="567.36" r="12.5"/><circle cx="591.63" cy="541.36" r="12.5"/><circle cx="591.63" cy="515.36" r="12.5"/><circle cx="591.63" cy="489.36" r="12.5"/><circle cx="591.63" cy="463.36" r="12.5"/><circle cx="591.63" cy="437.36" r="12.5"/><circle cx="591.63" cy="411.36" r="12.5"/><circle cx="591.63" cy="385.36" r="12.5"/><circle cx="591.63" cy="359.36" r="12.5"/><circle cx="591.63" cy="333.36" r="12.5"/><circle cx="591.63" cy="307.36" r="12.5"/><circle cx="591.63" cy="281.36" r="12.5"/><circle cx="591.63" cy="255.36" r="12.5"/><circle cx="591.63" cy="229.36" r="12.5"/><circle cx="591.63" cy="203.36" r="12.5"/><circle cx="591.63" cy="177.36" r="12.5"/><circle cx="591.63" cy="151.36" r="12.5"/><circle cx="591.63" cy="125.36" r="12.5"/><circle cx="591.63" cy="99.36" r="12.5"/><circle cx="591.63" cy="73.36" r="12.5"/><circle cx="591.63" cy="47.36" r="12.5"/><circle cx="591.63" cy="21.36" r="12.5"/><circle cx="565.63" cy="801.36" r="12.5"/><circle cx="565.63" cy="775.36" r="12.5"/><circle cx="565.63" cy="749.36" r="12.5"/><circle cx="565.63" cy="723.36" r="12.5"/><circle cx="565.63" cy="697.36" r="12.5"/><circle cx="565.63" cy="671.36" r="12.5"/><circle cx="565.63" cy="645.36" r="12.5"/><circle cx="565.63" cy="619.36" r="12.5"/><circle cx="565.63" cy="593.36" r="12.5"/><circle cx="565.63" cy="567.36" r="12.5"/><circle cx="565.63" cy="541.36" r="12.5"/><circle cx="565.63" cy="515.36" r="12.5"/><circle cx="565.63" cy="489.36" r="12.5"/><circle cx="565.63" cy="463.36" r="12.5"/><circle cx="565.63" cy="437.36" r="12.5"/><circle cx="565.63" cy="411.36" r="12.5"/><circle cx="565.63" cy="385.36" r="12.5"/><circle cx="565.63" cy="359.36" r="12.5"/><circle cx="565.63" cy="333.36" r="12.5"/><circle cx="565.63" cy="307.36" r="12.5"/><circle cx="565.63" cy="281.36" r="12.5"/><circle cx="565.63" cy="255.36" r="12.5"/><circle cx="565.63" cy="229.36" r="12.5"/><circle cx="565.63" cy="203.36" r="12.5"/><circle cx="565.63" cy="177.36" r="12.5"/><circle cx="565.63" cy="151.36" r="12.5"/><circle cx="565.63" cy="125.36" r="12.5"/><circle cx="565.63" cy="99.36" r="12.5"/><circle cx="565.63" cy="73.36" r="12.5"/><circle cx="565.63" cy="47.36" r="12.5"/><circle cx="565.63" cy="21.36" r="12.5"/><circle cx="539.63" cy="801.36" r="12.5"/><circle cx="539.63" cy="775.36" r="12.5"/><circle cx="539.63" cy="749.36" r="12.5"/><circle cx="539.63" cy="723.36" r="12.5"/><circle cx="539.63" cy="697.36" r="12.5"/><circle cx="539.63" cy="671.36" r="12.5"/><circle cx="539.63" cy="645.36" r="12.5"/><circle cx="539.63" cy="619.36" r="12.5"/><circle cx="539.63" cy="593.36" r="12.5"/><circle cx="539.63" cy="567.36" r="12.5"/><circle cx="539.63" cy="541.36" r="12.5"/><circle cx="539.63" cy="515.36" r="12.5"/><circle cx="539.63" cy="489.36" r="12.5"/><circle cx="539.63" cy="463.36" r="12.5"/><circle cx="539.63" cy="437.36" r="12.5"/><circle cx="539.63" cy="411.36" r="12.5"/><circle cx="539.63" cy="385.36" r="12.5"/><circle cx="539.63" cy="359.36" r="12.5"/><circle cx="539.63" cy="333.36" r="12.5"/><circle cx="539.63" cy="307.36" r="12.5"/><circle cx="539.63" cy="281.36" r="12.5"/><circle cx="539.63" cy="255.36" r="12.5"/><circle cx="539.63" cy="229.36" r="12.5"/><circle cx="539.63" cy="203.36" r="12.5"/><circle cx="539.63" cy="177.36" r="12.5"/><circle cx="539.63" cy="151.36" r="12.5"/><circle cx="539.63" cy="125.36" r="12.5"/><circle cx="539.63" cy="99.36" r="12.5"/><circle cx="539.63" cy="73.36" r="12.5"/><circle cx="539.63" cy="47.36" r="12.5"/><circle cx="539.63" cy="21.36" r="12.5"/><circle cx="513.63" cy="801.36" r="12.5"/><circle cx="513.63" cy="775.36" r="12.5"/><circle cx="513.63" cy="749.36" r="12.5"/><circle cx="513.63" cy="723.36" r="12.5"/><circle cx="513.63" cy="697.36" r="12.5"/><circle cx="513.63" cy="671.36" r="12.5"/><circle cx="513.63" cy="645.36" r="12.5"/><circle cx="513.63" cy="619.36" r="12.5"/><circle cx="513.63" cy="593.36" r="12.5"/><circle cx="513.63" cy="567.36" r="12.5"/><circle cx="513.63" cy="541.36" r="12.5"/><circle cx="513.63" cy="515.36" r="12.5"/><circle cx="513.63" cy="489.36" r="12.5"/><circle cx="513.63" cy="463.36" r="12.5"/><circle cx="513.63" cy="437.36" r="12.5"/><circle cx="513.63" cy="411.36" r="12.5"/><circle cx="513.63" cy="385.36" r="12.5"/><circle cx="513.63" cy="359.36" r="12.5"/><circle cx="513.63" cy="333.36" r="12.5"/><circle cx="513.63" cy="307.36" r="12.5"/><circle cx="513.63" cy="281.36" r="12.5"/><circle cx="513.63" cy="255.36" r="12.5"/><circle cx="513.63" cy="229.36" r="12.5"/><circle cx="513.63" cy="203.36" r="12.5"/><circle cx="513.63" cy="177.36" r="12.5"/><circle cx="513.63" cy="151.36" r="12.5"/><circle cx="513.63" cy="125.36" r="12.5"/><circle cx="513.63" cy="99.36" r="12.5"/><circle cx="513.63" cy="73.36" r="12.5"/><circle cx="513.63" cy="47.36" r="12.5"/><circle cx="513.63" cy="21.36" r="12.5"/><circle cx="487.63" cy="801.36" r="12.5"/><circle cx="487.63" cy="775.36" r="12.5"/><circle cx="487.63" cy="749.36" r="12.5"/><circle cx="487.63" cy="723.36" r="12.5"/><circle cx="487.63" cy="697.36" r="12.5"/><circle cx="487.63" cy="671.36" r="12.5"/><circle cx="487.63" cy="645.36" r="12.5"/><circle cx="487.63" cy="619.36" r="12.5"/><circle cx="487.63" cy="593.36" r="12.5"/><circle cx="487.63" cy="567.36" r="12.5"/><circle cx="487.63" cy="541.36" r="12.5"/><circle cx="487.63" cy="515.36" r="12.5"/><circle cx="487.63" cy="489.36" r="12.5"/><circle cx="487.63" cy="463.36" r="12.5"/><circle cx="487.63" cy="437.36" r="12.5"/><circle cx="487.63" cy="411.36" r="12.5"/><circle cx="487.63" cy="385.36" r="12.5"/><circle cx="487.63" cy="359.36" r="12.5"/><circle cx="487.63" cy="333.36" r="12.5"/><circle cx="487.63" cy="307.36" r="12.5"/><circle cx="487.63" cy="281.36" r="12.5"/><circle cx="487.63" cy="255.36" r="12.5"/><circle cx="487.63" cy="229.36" r="12.5"/><circle cx="487.63" cy="203.36" r="12.5"/><circle cx="487.63" cy="177.36" r="12.5"/><circle cx="487.63" cy="151.36" r="12.5"/><circle cx="487.63" cy="125.36" r="12.5"/><circle cx="487.63" cy="99.36" r="12.5"/><circle cx="487.63" cy="73.36" r="12.5"/><circle cx="487.63" cy="47.36" r="12.5"/><circle cx="487.63" cy="21.36" r="12.5"/><circle cx="461.63" cy="801.36" r="12.5"/><circle cx="461.63" cy="775.36" r="12.5"/><circle cx="461.63" cy="749.36" r="12.5"/><circle cx="461.63" cy="723.36" r="12.5"/><circle cx="461.63" cy="697.36" r="12.5"/><circle cx="461.63" cy="671.36" r="12.5"/><circle cx="461.63" cy="645.36" r="12.5"/><circle cx="461.63" cy="619.36" r="12.5"/><circle cx="461.63" cy="593.36" r="12.5"/><circle cx="461.63" cy="567.36" r="12.5"/><circle cx="461.63" cy="541.36" r="12.5"/><circle cx="461.63" cy="515.36" r="12.5"/><circle cx="461.63" cy="489.36" r="12.5"/><circle cx="461.63" cy="463.36" r="12.5"/><circle cx="461.63" cy="437.36" r="12.5"/><circle cx="461.63" cy="411.36" r="12.5"/><circle cx="461.63" cy="385.36" r="12.5"/><circle cx="461.63" cy="359.36" r="12.5"/><circle cx="461.63" cy="333.36" r="12.5"/><circle cx="461.63" cy="307.36" r="12.5"/><circle cx="461.63" cy="281.36" r="12.5"/><circle cx="461.63" cy="255.36" r="12.5"/><circle cx="461.63" cy="229.36" r="12.5"/><circle cx="461.63" cy="203.36" r="12.5"/><circle cx="461.63" cy="177.36" r="12.5"/><circle cx="461.63" cy="151.36" r="12.5"/><circle cx="461.63" cy="125.36" r="12.5"/><circle cx="461.63" cy="99.36" r="12.5"/><circle cx="461.63" cy="73.36" r="12.5"/><circle cx="461.63" cy="47.36" r="12.5"/><circle cx="461.63" cy="21.36" r="12.5"/><circle cx="435.63" cy="801.36" r="12.5"/><circle cx="435.63" cy="775.36" r="12.5"/><circle cx="435.63" cy="749.36" r="12.5"/><circle cx="435.63" cy="723.36" r="12.5"/><circle cx="435.63" cy="697.36" r="12.5"/><circle cx="435.63" cy="671.36" r="12.5"/><circle cx="435.63" cy="645.36" r="12.5"/><circle cx="435.63" cy="619.36" r="12.5"/><circle cx="435.63" cy="593.36" r="12.5"/><circle cx="435.63" cy="567.36" r="12.5"/><circle cx="435.63" cy="541.36" r="12.5"/><circle cx="435.63" cy="515.36" r="12.5"/><circle cx="435.63" cy="489.36" r="12.5"/><circle cx="435.63" cy="463.36" r="12.5"/><circle cx="435.63" cy="437.36" r="12.5"/><circle cx="435.63" cy="411.36" r="12.5"/><circle cx="435.63" cy="385.36" r="12.5"/><circle cx="435.63" cy="359.36" r="12.5"/><circle cx="435.63" cy="333.36" r="12.5"/><circle cx="435.63" cy="307.36" r="12.5"/><circle cx="435.63" cy="281.36" r="12.5"/><circle cx="435.63" cy="255.36" r="12.5"/><circle cx="435.63" cy="229.36" r="12.5"/><circle cx="435.63" cy="203.36" r="12.5"/><circle cx="435.63" cy="177.36" r="12.5"/><circle cx="435.63" cy="151.36" r="12.5"/><circle cx="435.63" cy="125.36" r="12.5"/><circle cx="435.63" cy="99.36" r="12.5"/><circle cx="435.63" cy="73.36" r="12.5"/><circle cx="435.63" cy="47.36" r="12.5"/><circle cx="435.63" cy="21.36" r="12.5"/><circle cx="409.63" cy="801.36" r="12.5"/><circle cx="409.63" cy="775.36" r="12.5"/><circle cx="409.63" cy="749.36" r="12.5"/><circle cx="409.63" cy="723.36" r="12.5"/><circle cx="409.63" cy="697.36" r="12.5"/><circle cx="409.63" cy="671.36" r="12.5"/><circle cx="409.63" cy="645.36" r="12.5"/><circle cx="409.63" cy="619.36" r="12.5"/><circle cx="409.63" cy="593.36" r="12.5"/><circle cx="409.63" cy="567.36" r="12.5"/><circle cx="409.63" cy="541.36" r="12.5"/><circle cx="409.63" cy="515.36" r="12.5"/><circle cx="409.63" cy="489.36" r="12.5"/><circle cx="409.63" cy="463.36" r="12.5"/><circle cx="409.63" cy="437.36" r="12.5"/><circle cx="409.63" cy="411.36" r="12.5"/><circle cx="409.63" cy="385.36" r="12.5"/><circle cx="409.63" cy="359.36" r="12.5"/><circle cx="409.63" cy="333.36" r="12.5"/><circle cx="409.63" cy="307.36" r="12.5"/><circle cx="409.63" cy="281.36" r="12.5"/><circle cx="409.63" cy="255.36" r="12.5"/><circle cx="409.63" cy="229.36" r="12.5"/><circle cx="409.63" cy="203.36" r="12.5"/><circle cx="409.63" cy="177.36" r="12.5"/><circle cx="409.63" cy="151.36" r="12.5"/><circle cx="409.63" cy="125.36" r="12.5"/><circle cx="409.63" cy="99.36" r="12.5"/><circle cx="409.63" cy="73.36" r="12.5"/><circle cx="409.63" cy="47.36" r="12.5"/><circle cx="409.63" cy="21.36" r="12.5"/><circle cx="383.63" cy="801.36" r="12.5"/><circle cx="383.63" cy="775.36" r="12.5"/><circle cx="383.63" cy="749.36" r="12.5"/><circle cx="383.63" cy="723.36" r="12.5"/><circle cx="383.63" cy="697.36" r="12.5"/><circle cx="383.63" cy="671.36" r="12.5"/><circle cx="383.63" cy="645.36" r="12.5"/><circle cx="383.63" cy="619.36" r="12.5"/><circle cx="383.63" cy="593.36" r="12.5"/><circle cx="383.63" cy="567.36" r="12.5"/><circle cx="383.63" cy="541.36" r="12.5"/><circle cx="383.63" cy="515.36" r="12.5"/><circle cx="383.63" cy="489.36" r="12.5"/><circle cx="383.63" cy="463.36" r="12.5"/><circle cx="383.63" cy="437.36" r="12.5"/><circle cx="383.63" cy="411.36" r="12.5"/><circle cx="383.63" cy="385.36" r="12.5"/><circle cx="383.63" cy="359.36" r="12.5"/><circle cx="383.63" cy="333.36" r="12.5"/><circle cx="383.63" cy="307.36" r="12.5"/><circle cx="383.63" cy="281.36" r="12.5"/><circle cx="383.63" cy="255.36" r="12.5"/><circle cx="383.63" cy="229.36" r="12.5"/><circle cx="383.63" cy="203.36" r="12.5"/><circle cx="383.63" cy="177.36" r="12.5"/><circle cx="383.63" cy="151.36" r="12.5"/><circle cx="383.63" cy="125.36" r="12.5"/><circle cx="383.63" cy="99.36" r="12.5"/><circle cx="383.63" cy="73.36" r="12.5"/><circle cx="383.63" cy="47.36" r="12.5"/><circle cx="383.63" cy="21.36" r="12.5"/><circle cx="357.63" cy="801.36" r="12.5"/><circle cx="357.63" cy="775.36" r="12.5"/><circle cx="357.63" cy="749.36" r="12.5"/><circle cx="357.63" cy="723.36" r="12.5"/><circle cx="357.63" cy="697.36" r="12.5"/><circle cx="357.63" cy="671.36" r="12.5"/><circle cx="357.63" cy="645.36" r="12.5"/><circle cx="357.63" cy="619.36" r="12.5"/><circle cx="357.63" cy="593.36" r="12.5"/><circle cx="357.63" cy="567.36" r="12.5"/><circle cx="357.63" cy="541.36" r="12.5"/><circle cx="357.63" cy="515.36" r="12.5"/><circle cx="357.63" cy="489.36" r="12.5"/><circle cx="357.63" cy="463.36" r="12.5"/><circle cx="357.63" cy="437.36" r="12.5"/><circle cx="357.63" cy="411.36" r="12.5"/><circle cx="357.63" cy="385.36" r="12.5"/><circle cx="357.63" cy="359.36" r="12.5"/><circle cx="357.63" cy="333.36" r="12.5"/><circle cx="357.63" cy="307.36" r="12.5"/><circle cx="357.63" cy="281.36" r="12.5"/><circle cx="357.63" cy="255.36" r="12.5"/><circle cx="357.63" cy="229.36" r="12.5"/><circle cx="357.63" cy="203.36" r="12.5"/><circle cx="357.63" cy="177.36" r="12.5"/><circle cx="357.63" cy="151.36" r="12.5"/><circle cx="357.63" cy="125.36" r="12.5"/><circle cx="357.63" cy="99.36" r="12.5"/><circle cx="357.63" cy="73.36" r="12.5"/><circle cx="357.63" cy="47.36" r="12.5"/><circle cx="357.63" cy="21.36" r="12.5"/><circle cx="331.63" cy="801.36" r="12.5"/><circle cx="331.63" cy="775.36" r="12.5"/><circle cx="331.63" cy="749.36" r="12.5"/><circle cx="331.63" cy="723.36" r="12.5"/><circle cx="331.63" cy="697.36" r="12.5"/><circle cx="331.63" cy="671.36" r="12.5"/><circle cx="331.63" cy="645.36" r="12.5"/><circle cx="331.63" cy="619.36" r="12.5"/><circle cx="331.63" cy="593.36" r="12.5"/><circle cx="331.63" cy="567.36" r="12.5"/><circle cx="331.63" cy="541.36" r="12.5"/><circle cx="331.63" cy="515.36" r="12.5"/><circle cx="331.63" cy="489.36" r="12.5"/><circle cx="331.63" cy="463.36" r="12.5"/><circle cx="331.63" cy="437.36" r="12.5"/><circle cx="331.63" cy="411.36" r="12.5"/><circle cx="331.63" cy="385.36" r="12.5"/><circle cx="331.63" cy="359.36" r="12.5"/><circle cx="331.63" cy="333.36" r="12.5"/><circle cx="331.63" cy="307.36" r="12.5"/><circle cx="331.63" cy="281.36" r="12.5"/><circle cx="331.63" cy="255.36" r="12.5"/><circle cx="331.63" cy="229.36" r="12.5"/><circle cx="331.63" cy="203.36" r="12.5"/><circle cx="331.63" cy="177.36" r="12.5"/><circle cx="331.63" cy="151.36" r="12.5"/><circle cx="331.63" cy="125.36" r="12.5"/><circle cx="331.63" cy="99.36" r="12.5"/><circle cx="331.63" cy="73.36" r="12.5"/><circle cx="331.63" cy="47.36" r="12.5"/><circle cx="331.63" cy="21.36" r="12.5"/><circle cx="305.63" cy="801.36" r="12.5"/><circle cx="305.63" cy="775.36" r="12.5"/><circle cx="305.63" cy="749.36" r="12.5"/><circle cx="305.63" cy="723.36" r="12.5"/><circle cx="305.63" cy="697.36" r="12.5"/><circle cx="305.63" cy="671.36" r="12.5"/><circle cx="305.63" cy="645.36" r="12.5"/><circle cx="305.63" cy="619.36" r="12.5"/><circle cx="305.63" cy="593.36" r="12.5"/><circle cx="305.63" cy="567.36" r="12.5"/><circle cx="305.63" cy="541.36" r="12.5"/><circle cx="305.63" cy="515.36" r="12.5"/><circle cx="305.63" cy="489.36" r="12.5"/><circle cx="305.63" cy="463.36" r="12.5"/><circle cx="305.63" cy="437.36" r="12.5"/><circle cx="305.63" cy="411.36" r="12.5"/><circle cx="305.63" cy="385.36" r="12.5"/><circle cx="305.63" cy="359.36" r="12.5"/><circle cx="305.63" cy="333.36" r="12.5"/><circle cx="305.63" cy="307.36" r="12.5"/><circle cx="305.63" cy="281.36" r="12.5"/><circle cx="305.63" cy="255.36" r="12.5"/><circle cx="305.63" cy="229.36" r="12.5"/><circle cx="305.63" cy="203.36" r="12.5"/><circle cx="305.63" cy="177.36" r="12.5"/><circle cx="305.63" cy="151.36" r="12.5"/><circle cx="305.63" cy="125.36" r="12.5"/><circle cx="305.63" cy="99.36" r="12.5"/><circle cx="305.63" cy="73.36" r="12.5"/><circle cx="305.63" cy="47.36" r="12.5"/><circle cx="305.63" cy="21.36" r="12.5"/><circle cx="279.63" cy="801.36" r="12.5"/><circle cx="279.63" cy="775.36" r="12.5"/><circle cx="279.63" cy="749.36" r="12.5"/><circle cx="279.63" cy="723.36" r="12.5"/><circle cx="279.63" cy="697.36" r="12.5"/><circle cx="279.63" cy="671.36" r="12.5"/><circle cx="279.63" cy="645.36" r="12.5"/><circle cx="279.63" cy="619.36" r="12.5"/><circle cx="279.63" cy="593.36" r="12.5"/><circle cx="279.63" cy="567.36" r="12.5"/><circle cx="279.63" cy="541.36" r="12.5"/><circle cx="279.63" cy="515.36" r="12.5"/><circle cx="279.63" cy="489.36" r="12.5"/><circle cx="279.63" cy="463.36" r="12.5"/><circle cx="279.63" cy="437.36" r="12.5"/><circle cx="279.63" cy="411.36" r="12.5"/><circle cx="279.63" cy="385.36" r="12.5"/><circle cx="279.63" cy="359.36" r="12.5"/><circle cx="279.63" cy="333.36" r="12.5"/><circle cx="279.63" cy="307.36" r="12.5"/><circle cx="279.63" cy="281.36" r="12.5"/><circle cx="279.63" cy="255.36" r="12.5"/><circle cx="279.63" cy="229.36" r="12.5"/><circle cx="279.63" cy="203.36" r="12.5"/><circle cx="279.63" cy="177.36" r="12.5"/><circle cx="279.63" cy="151.36" r="12.5"/><circle cx="279.63" cy="125.36" r="12.5"/><circle cx="279.63" cy="99.36" r="12.5"/><circle cx="279.63" cy="73.36" r="12.5"/><circle cx="279.63" cy="47.36" r="12.5"/><circle cx="279.63" cy="21.36" r="12.5"/><circle cx="253.63" cy="801.36" r="12.5"/><circle cx="253.63" cy="775.36" r="12.5"/><circle cx="253.63" cy="749.36" r="12.5"/><circle cx="253.63" cy="723.36" r="12.5"/><circle cx="253.63" cy="697.36" r="12.5"/><circle cx="253.63" cy="671.36" r="12.5"/><circle cx="253.63" cy="645.36" r="12.5"/><circle cx="253.63" cy="619.36" r="12.5"/><circle cx="253.63" cy="593.36" r="12.5"/><circle cx="253.63" cy="567.36" r="12.5"/><circle cx="253.63" cy="541.36" r="12.5"/><circle cx="253.63" cy="515.36" r="12.5"/><circle cx="253.63" cy="489.36" r="12.5"/><circle cx="253.63" cy="463.36" r="12.5"/><circle cx="253.63" cy="437.36" r="12.5"/><circle cx="253.63" cy="411.36" r="12.5"/><circle cx="253.63" cy="385.36" r="12.5"/><circle cx="253.63" cy="359.36" r="12.5"/><circle cx="253.63" cy="333.36" r="12.5"/><circle cx="253.63" cy="307.36" r="12.5"/><circle cx="253.63" cy="281.36" r="12.5"/><circle cx="253.63" cy="255.36" r="12.5"/><circle cx="253.63" cy="229.36" r="12.5"/><circle cx="253.63" cy="203.36" r="12.5"/><circle cx="253.63" cy="177.36" r="12.5"/><circle cx="253.63" cy="151.36" r="12.5"/><circle cx="253.63" cy="125.36" r="12.5"/><circle cx="253.63" cy="99.36" r="12.5"/><circle cx="253.63" cy="73.36" r="12.5"/><circle cx="253.63" cy="47.36" r="12.5"/><circle cx="253.63" cy="21.36" r="12.5"/><circle cx="227.63" cy="801.36" r="12.5"/><circle cx="227.63" cy="775.36" r="12.5"/><circle cx="227.63" cy="749.36" r="12.5"/><circle cx="227.63" cy="723.36" r="12.5"/><circle cx="227.63" cy="697.36" r="12.5"/><circle cx="227.63" cy="671.36" r="12.5"/><circle cx="227.63" cy="645.36" r="12.5"/><circle cx="227.63" cy="619.36" r="12.5"/><circle cx="227.63" cy="593.36" r="12.5"/><circle cx="227.63" cy="567.36" r="12.5"/><circle cx="227.63" cy="541.36" r="12.5"/><circle cx="227.63" cy="515.36" r="12.5"/><circle cx="227.63" cy="489.36" r="12.5"/><circle cx="227.63" cy="463.36" r="12.5"/><circle cx="227.63" cy="437.36" r="12.5"/><circle cx="227.63" cy="411.36" r="12.5"/><circle cx="227.63" cy="385.36" r="12.5"/><circle cx="227.63" cy="359.36" r="12.5"/><circle cx="227.63" cy="333.36" r="12.5"/><circle cx="227.63" cy="307.36" r="12.5"/><circle cx="227.63" cy="281.36" r="12.5"/><circle cx="227.63" cy="255.36" r="12.5"/><circle cx="227.63" cy="229.36" r="12.5"/><circle cx="227.63" cy="203.36" r="12.5"/><circle cx="227.63" cy="177.36" r="12.5"/><circle cx="227.63" cy="151.36" r="12.5"/><circle cx="227.63" cy="125.36" r="12.5"/><circle cx="227.63" cy="99.36" r="12.5"/><circle cx="227.63" cy="73.36" r="12.5"/><circle cx="227.63" cy="47.36" r="12.5"/><circle cx="227.63" cy="21.36" r="12.5"/><circle cx="201.63" cy="801.36" r="12.5"/><circle cx="201.63" cy="775.36" r="12.5"/><circle cx="201.63" cy="749.36" r="12.5"/><circle cx="201.63" cy="723.36" r="12.5"/><circle cx="201.63" cy="697.36" r="12.5"/><circle cx="201.63" cy="671.36" r="12.5"/><circle cx="201.63" cy="645.36" r="12.5"/><circle cx="201.63" cy="619.36" r="12.5"/><circle cx="201.63" cy="593.36" r="12.5"/><circle cx="201.63" cy="567.36" r="12.5"/><circle cx="201.63" cy="541.36" r="12.5"/><circle cx="201.63" cy="515.36" r="12.5"/><circle cx="201.63" cy="489.36" r="12.5"/><circle cx="201.63" cy="463.36" r="12.5"/><circle cx="201.63" cy="437.36" r="12.5"/><circle cx="201.63" cy="411.36" r="12.5"/><circle cx="201.63" cy="385.36" r="12.5"/><circle cx="201.63" cy="359.36" r="12.5"/><circle cx="201.63" cy="333.36" r="12.5"/><circle cx="201.63" cy="307.36" r="12.5"/><circle cx="201.63" cy="281.36" r="12.5"/><circle cx="201.63" cy="255.36" r="12.5"/><circle cx="201.63" cy="229.36" r="12.5"/><circle cx="201.63" cy="203.36" r="12.5"/><circle cx="201.63" cy="177.36" r="12.5"/><circle cx="201.63" cy="151.36" r="12.5"/><circle cx="201.63" cy="125.36" r="12.5"/><circle cx="201.63" cy="99.36" r="12.5"/><circle cx="201.63" cy="73.36" r="12.5"/><circle cx="201.63" cy="47.36" r="12.5"/><circle cx="201.63" cy="21.36" r="12.5"/><circle cx="175.63" cy="801.36" r="12.5"/><circle cx="175.63" cy="775.36" r="12.5"/><circle cx="175.63" cy="749.36" r="12.5"/><circle cx="175.63" cy="723.36" r="12.5"/><circle cx="175.63" cy="697.36" r="12.5"/><circle cx="175.63" cy="671.36" r="12.5"/><circle cx="175.63" cy="645.36" r="12.5"/><circle cx="175.63" cy="619.36" r="12.5"/><circle cx="175.63" cy="593.36" r="12.5"/><circle cx="175.63" cy="567.36" r="12.5"/><circle cx="175.63" cy="541.36" r="12.5"/><circle cx="175.63" cy="515.36" r="12.5"/><circle cx="175.63" cy="489.36" r="12.5"/><circle cx="175.63" cy="463.36" r="12.5"/><circle cx="175.63" cy="437.36" r="12.5"/><circle cx="175.63" cy="411.36" r="12.5"/><circle cx="175.63" cy="385.36" r="12.5"/><circle cx="175.63" cy="359.36" r="12.5"/><circle cx="175.63" cy="333.36" r="12.5"/><circle cx="175.63" cy="307.36" r="12.5"/><circle cx="175.63" cy="281.36" r="12.5"/><circle cx="175.63" cy="255.36" r="12.5"/><circle cx="175.63" cy="229.36" r="12.5"/><circle cx="175.63" cy="203.36" r="12.5"/><circle cx="175.63" cy="177.36" r="12.5"/><circle cx="175.63" cy="151.36" r="12.5"/><circle cx="175.63" cy="125.36" r="12.5"/><circle cx="175.63" cy="99.36" r="12.5"/><circle cx="175.63" cy="73.36" r="12.5"/><circle cx="175.63" cy="47.36" r="12.5"/><circle cx="175.63" cy="21.36" r="12.5"/><circle cx="149.63" cy="801.36" r="12.5"/><circle cx="149.63" cy="775.36" r="12.5"/><circle cx="149.63" cy="749.36" r="12.5"/><circle cx="149.63" cy="723.36" r="12.5"/><circle cx="149.63" cy="697.36" r="12.5"/><circle cx="149.63" cy="671.36" r="12.5"/><circle cx="149.63" cy="645.36" r="12.5"/><circle cx="149.63" cy="619.36" r="12.5"/><circle cx="149.63" cy="593.36" r="12.5"/><circle cx="149.63" cy="567.36" r="12.5"/><circle cx="149.63" cy="541.36" r="12.5"/><circle cx="149.63" cy="515.36" r="12.5"/><circle cx="149.63" cy="489.36" r="12.5"/><circle cx="149.63" cy="463.36" r="12.5"/><circle cx="149.63" cy="437.36" r="12.5"/><circle cx="149.63" cy="411.36" r="12.5"/><circle cx="149.63" cy="385.36" r="12.5"/><circle cx="149.63" cy="359.36" r="12.5"/><circle cx="149.63" cy="333.36" r="12.5"/><circle cx="149.63" cy="307.36" r="12.5"/><circle cx="149.63" cy="281.36" r="12.5"/><circle cx="149.63" cy="255.36" r="12.5"/><circle cx="149.63" cy="229.36" r="12.5"/><circle cx="149.63" cy="203.36" r="12.5"/><circle cx="149.63" cy="177.36" r="12.5"/><circle cx="149.63" cy="151.36" r="12.5"/><circle cx="149.63" cy="125.36" r="12.5"/><circle cx="149.63" cy="99.36" r="12.5"/><circle cx="149.63" cy="73.36" r="12.5"/><circle cx="149.63" cy="47.36" r="12.5"/><circle cx="149.63" cy="21.36" r="12.5"/><circle cx="123.63" cy="801.36" r="12.5"/><circle cx="123.63" cy="775.36" r="12.5"/><circle cx="123.63" cy="749.36" r="12.5"/><circle cx="123.63" cy="723.36" r="12.5"/><circle cx="123.63" cy="697.36" r="12.5"/><circle cx="123.63" cy="671.36" r="12.5"/><circle cx="123.63" cy="645.36" r="12.5"/><circle cx="123.63" cy="619.36" r="12.5"/><circle cx="123.63" cy="593.36" r="12.5"/><circle cx="123.63" cy="567.36" r="12.5"/><circle cx="123.63" cy="541.36" r="12.5"/><circle cx="123.63" cy="515.36" r="12.5"/><circle cx="123.63" cy="489.36" r="12.5"/><circle cx="123.63" cy="463.36" r="12.5"/><circle cx="123.63" cy="437.36" r="12.5"/><circle cx="123.63" cy="411.36" r="12.5"/><circle cx="123.63" cy="385.36" r="12.5"/><circle cx="123.63" cy="359.36" r="12.5"/><circle cx="123.63" cy="333.36" r="12.5"/><circle cx="123.63" cy="307.36" r="12.5"/><circle cx="123.63" cy="281.36" r="12.5"/><circle cx="123.63" cy="255.36" r="12.5"/><circle cx="123.63" cy="229.36" r="12.5"/><circle cx="123.63" cy="203.36" r="12.5"/><circle cx="123.63" cy="177.36" r="12.5"/><circle cx="123.63" cy="151.36" r="12.5"/><circle cx="123.63" cy="125.36" r="12.5"/><circle cx="123.63" cy="99.36" r="12.5"/><circle cx="123.63" cy="73.36" r="12.5"/><circle cx="123.63" cy="47.36" r="12.5"/><circle cx="123.63" cy="21.36" r="12.5"/><circle cx="97.63" cy="801.36" r="12.5"/><circle cx="97.63" cy="775.36" r="12.5"/><circle cx="97.63" cy="749.36" r="12.5"/><circle cx="97.63" cy="723.36" r="12.5"/><circle cx="97.63" cy="697.36" r="12.5"/><circle cx="97.63" cy="671.36" r="12.5"/><circle cx="97.63" cy="645.36" r="12.5"/><circle cx="97.63" cy="619.36" r="12.5"/><circle cx="97.63" cy="593.36" r="12.5"/><circle cx="97.63" cy="567.36" r="12.5"/><circle cx="97.63" cy="541.36" r="12.5"/><circle cx="97.63" cy="515.36" r="12.5"/><circle cx="97.63" cy="489.36" r="12.5"/><circle cx="97.63" cy="463.36" r="12.5"/><circle cx="97.63" cy="437.36" r="12.5"/><circle cx="97.63" cy="411.36" r="12.5"/><circle cx="97.63" cy="385.36" r="12.5"/><circle cx="97.63" cy="359.36" r="12.5"/><circle cx="97.63" cy="333.36" r="12.5"/><circle cx="97.63" cy="307.36" r="12.5"/><circle cx="97.63" cy="281.36" r="12.5"/><circle cx="97.63" cy="255.36" r="12.5"/><circle cx="97.63" cy="229.36" r="12.5"/><circle cx="97.63" cy="203.36" r="12.5"/><circle cx="97.63" cy="177.36" r="12.5"/><circle cx="97.63" cy="151.36" r="12.5"/><circle cx="97.63" cy="125.36" r="12.5"/><circle cx="97.63" cy="99.36" r="12.5"/><circle cx="97.63" cy="73.36" r="12.5"/><circle cx="97.63" cy="47.36" r="12.5"/><circle cx="97.63" cy="21.36" r="12.5"/><circle cx="71.63" cy="801.36" r="12.5"/><circle cx="71.63" cy="775.36" r="12.5"/><circle cx="71.63" cy="749.36" r="12.5"/><circle cx="71.63" cy="723.36" r="12.5"/><circle cx="71.63" cy="697.36" r="12.5"/><circle cx="71.63" cy="671.36" r="12.5"/><circle cx="71.63" cy="645.36" r="12.5"/><circle cx="71.63" cy="619.36" r="12.5"/><circle cx="71.63" cy="593.36" r="12.5"/><circle cx="71.63" cy="567.36" r="12.5"/><circle cx="71.63" cy="541.36" r="12.5"/><circle cx="71.63" cy="515.36" r="12.5"/><circle cx="71.63" cy="489.36" r="12.5"/><circle cx="71.63" cy="463.36" r="12.5"/><circle cx="71.63" cy="437.36" r="12.5"/><circle cx="71.63" cy="411.36" r="12.5"/><circle cx="71.63" cy="385.36" r="12.5"/><circle cx="71.63" cy="359.36" r="12.5"/><circle cx="71.63" cy="333.36" r="12.5"/><circle cx="71.63" cy="307.36" r="12.5"/><circle cx="71.63" cy="281.36" r="12.5"/><circle cx="71.63" cy="255.36" r="12.5"/><circle cx="71.63" cy="229.36" r="12.5"/><circle cx="71.63" cy="203.36" r="12.5"/><circle cx="71.63" cy="177.36" r="12.5"/><circle cx="71.63" cy="151.36" r="12.5"/><circle cx="71.63" cy="125.36" r="12.5"/><circle cx="71.63" cy="99.36" r="12.5"/><circle cx="71.63" cy="73.36" r="12.5"/><circle cx="71.63" cy="47.36" r="12.5"/><circle cx="71.63" cy="21.36" r="12.5"/></svg>