<svg id="Layer_1" data-name="Layer 1" xmlns="http://www.w3.org/2000/svg" viewBox="0 0 657.91 657.91"><defs><style>.cls-1{fill:#fff;}.cls-2{fill:#31ff66;}.cls-3{fill:#4eff65;}</style></defs><title>loading-screen-graphic</title><circle class="cls-1" cx="628.95" cy="628.95" r="28.95"/><circle class="cls-1" cx="568.95" cy="628.95" r="28.95"/><circle class="cls-1" cx="508.95" cy="628.95" r="28.95"/><circle class="cls-1" cx="448.95" cy="628.95" r="28.95"/><circle class="cls-1" cx="388.95" cy="628.95" r="28.95"/><circle class="cls-1" cx="328.95" cy="628.95" r="28.95"/><circle class="cls-1" cx="268.95" cy="628.95" r="28.95"/><circle class="cls-1" cx="208.95" cy="628.95" r="28.95"/><circle class="cls-1" cx="148.95" cy="628.95" r="28.95"/><circle class="cls-1" cx="88.95" cy="628.95" r="28.95"/><circle class="cls-1" cx="28.95" cy="628.95" r="28.95"/><circle class="cls-1" cx="628.95" cy="568.95" r="28.95"/><circle class="cls-1" cx="568.95" cy="568.95" r="28.95"/><circle class="cls-1" cx="508.95" cy="568.95" r="28.95"/><circle class="cls-2" cx="448.95" cy="568.95" r="28.95"/><circle class="cls-1" cx="388.95" cy="568.95" r="28.95"/><circle class="cls-1" cx="328.95" cy="568.95" r="28.95"/><circle class="cls-1" cx="268.95" cy="568.95" r="28.95"/><circle class="cls-1" cx="208.95" cy="568.95" r="28.95"/><circle class="cls-2" cx="148.95" cy="568.95" r="28.95"/><circle class="cls-1" cx="88.95" cy="568.95" r="28.95"/><circle class="cls-1" cx="28.95" cy="568.95" r="28.95"/><circle class="cls-1" cx="628.95" cy="508.95" r="28.95"/><circle class="cls-1" cx="568.95" cy="508.95" r="28.95"/><circle class="cls-1" cx="508.95" cy="508.95" r="28.95"/><circle class="cls-1" cx="448.95" cy="508.95" r="28.95"/><circle class="cls-1" cx="388.95" cy="508.95" r="28.95"/><circle class="cls-1" cx="328.95" cy="508.95" r="28.95"/><circle class="cls-1" cx="268.95" cy="508.95" r="28.95"/><circle class="cls-1" cx="208.95" cy="508.95" r="28.95"/><circle class="cls-1" cx="148.95" cy="508.95" r="28.95"/><circle class="cls-1" cx="88.95" cy="508.95" r="28.95"/><circle class="cls-1" cx="28.95" cy="508.95" r="28.95"/><circle class="cls-1" cx="628.95" cy="448.95" r="28.95"/><circle class="cls-1" cx="568.95" cy="448.95" r="28.95"/><circle class="cls-1" cx="508.95" cy="448.95" r="28.95"/><circle class="cls-1" cx="448.95" cy="448.95" r="28.95"/><circle class="cls-1" cx="388.95" cy="448.95" r="28.95"/><circle class="cls-1" cx="328.95" cy="448.95" r="28.95"/><circle class="cls-3" cx="268.95" cy="448.95" r="28.95"/><circle class="cls-1" cx="208.95" cy="448.95" r="28.95"/><circle class="cls-1" cx="148.95" cy="448.95" r="28.95"/><circle class="cls-2" cx="88.95" cy="448.95" r="28.95"/><circle class="cls-1" cx="28.95" cy="448.95" r="28.95"/><circle class="cls-1" cx="628.95" cy="388.95" r="28.95"/><circle class="cls-1" cx="568.95" cy="388.95" r="28.95"/><circle class="cls-2" cx="508.95" cy="388.95" r="28.95"/><circle class="cls-1" cx="448.95" cy="388.95" r="28.95"/><circle class="cls-1" cx="388.95" cy="388.95" r="28.95"/><circle class="cls-3" cx="328.95" cy="388.95" r="28.95"/><circle class="cls-1" cx="268.95" cy="388.95" r="28.95"/><circle class="cls-1" cx="208.95" cy="388.95" r="28.95"/><circle class="cls-1" cx="148.95" cy="388.95" r="28.95"/><circle class="cls-1" cx="88.95" cy="388.95" r="28.95"/><circle class="cls-1" cx="28.95" cy="388.95" r="28.95"/><circle class="cls-1" cx="628.95" cy="328.95" r="28.95"/><circle class="cls-2" cx="568.95" cy="328.95" r="28.95"/><circle class="cls-2" cx="508.95" cy="328.95" r="28.95"/><circle class="cls-2" cx="448.95" cy="328.95" r="28.95"/><circle class="cls-1" cx="388.95" cy="328.95" r="28.95"/><circle class="cls-3" cx="328.95" cy="328.95" r="28.95"/><circle class="cls-1" cx="268.95" cy="328.95" r="28.95"/><circle class="cls-1" cx="208.95" cy="328.95" r="28.95"/><circle class="cls-1" cx="148.95" cy="328.95" r="28.95"/><circle class="cls-1" cx="88.95" cy="328.95" r="28.95"/><circle class="cls-1" cx="28.95" cy="328.95" r="28.95"/><circle class="cls-1" cx="628.95" cy="268.95" r="28.95"/><circle class="cls-1" cx="568.95" cy="268.95" r="28.95"/><circle class="cls-2" cx="508.95" cy="268.95" r="28.95"/><circle class="cls-1" cx="448.95" cy="268.95" r="28.95"/><circle class="cls-1" cx="388.95" cy="268.95" r="28.95"/><circle class="cls-3" cx="328.95" cy="268.95" r="28.95"/><circle class="cls-1" cx="268.95" cy="268.95" r="28.95"/><circle class="cls-1" cx="208.95" cy="268.95" r="28.95"/><circle class="cls-1" cx="148.95" cy="268.95" r="28.95"/><circle class="cls-1" cx="88.95" cy="268.95" r="28.95"/><circle class="cls-1" cx="28.95" cy="268.95" r="28.95"/><circle class="cls-1" cx="628.95" cy="208.95" r="28.95"/><circle class="cls-1" cx="568.95" cy="208.95" r="28.95"/><circle class="cls-1" cx="508.95" cy="208.95" r="28.95"/><circle class="cls-1" cx="448.95" cy="208.95" r="28.95"/><circle class="cls-1" cx="388.95" cy="208.95" r="28.95"/><circle class="cls-3" cx="328.95" cy="208.95" r="28.95"/><circle class="cls-3" cx="268.95" cy="208.95" r="28.95"/><circle class="cls-1" cx="208.95" cy="208.95" r="28.95"/><circle class="cls-1" cx="148.95" cy="208.95" r="28.95"/><circle class="cls-1" cx="88.95" cy="208.95" r="28.95"/><circle class="cls-1" cx="28.95" cy="208.95" r="28.95"/><circle class="cls-1" cx="628.95" cy="148.95" r="28.95"/><circle class="cls-1" cx="568.95" cy="148.95" r="28.95"/><circle class="cls-1" cx="508.95" cy="148.95" r="28.95"/><circle class="cls-1" cx="448.95" cy="148.95" r="28.95"/><circle class="cls-1" cx="388.95" cy="148.95" r="28.95"/><circle class="cls-1" cx="328.95" cy="148.95" r="28.95"/><circle class="cls-1" cx="268.95" cy="148.95" r="28.95"/><circle class="cls-1" cx="208.95" cy="148.95" r="28.95"/><circle class="cls-1" cx="148.95" cy="148.95" r="28.95"/><circle class="cls-1" cx="88.95" cy="148.95" r="28.95"/><circle class="cls-1" cx="28.95" cy="148.95" r="28.95"/><circle class="cls-1" cx="628.95" cy="88.95" r="28.95"/><circle class="cls-1" cx="568.95" cy="88.95" r="28.95"/><circle class="cls-1" cx="508.95" cy="88.95" r="28.95"/><circle class="cls-1" cx="448.95" cy="88.95" r="28.95"/><circle class="cls-1" cx="388.95" cy="88.95" r="28.95"/><circle class="cls-1" cx="328.95" cy="88.95" r="28.95"/><circle class="cls-1" cx="268.95" cy="88.95" r="28.95"/><circle class="cls-1" cx="208.95" cy="88.95" r="28.95"/><circle class="cls-1" cx="148.95" cy="88.95" r="28.95"/><circle class="cls-2" cx="88.95" cy="88.95" r="28.95"/><circle class="cls-1" cx="28.95" cy="88.95" r="28.95"/><circle class="cls-2" cx="628.95" cy="28.95" r="28.95"/><circle class="cls-1" cx="568.95" cy="28.95" r="28.95"/><circle class="cls-1" cx="508.95" cy="28.95" r="28.95"/><circle class="cls-1" cx="448.95" cy="28.95" r="28.95"/><circle class="cls-1" cx="388.95" cy="28.95" r="28.95"/><circle class="cls-1" cx="328.95" cy="28.95" r="28.95"/><circle class="cls-1" cx="268.95" cy="28.95" r="28.95"/><circle class="cls-1" cx="208.95" cy="28.95" r="28.95"/><circle class="cls-1" cx="148.95" cy="28.95" r="28.95"/><circle class="cls-1" cx="88.95" cy="28.95" r="28.95"/><circle class="cls-1" cx="28.95" cy="28.95" r="28.95"/></svg>