<?xml version="1.0" encoding="utf-8"?>
<!-- Generator: Adobe Illustrator 19.2.0, SVG Export Plug-In . SVG Version: 6.00 Build 0)  -->
<svg version="1.1" id="Layer_2" xmlns="http://www.w3.org/2000/svg" xmlns:xlink="http://www.w3.org/1999/xlink" x="0px" y="0px"
	 viewBox="0 0 1333.3 980.7" style="enable-background:new 0 0 1333.3 980.7;" xml:space="preserve">
<style type="text/css">
	.st0{fill:#1EEB69;stroke:#000000;stroke-width:8.5;stroke-miterlimit:10;}
	.st1{fill:none;stroke:#000000;stroke-width:8.5;stroke-miterlimit:10;}
</style>
<title>Motivation2</title>
<circle class="st0" cx="666.8" cy="490.4" r="450.6"/>
<circle class="st1" cx="666.8" cy="485.3" r="261.5"/>
<circle class="st1" cx="490.4" cy="490.4" r="486.1"/>
<circle class="st1" cx="843" cy="490.4" r="486.1"/>
<g>
	<path d="M101.4,401.4c0-3.1,0.8-5.5,2.4-7.1c1.6-1.6,3.9-2.4,6.9-2.4h15.6v-4.5h7v2.2c-0.1,0.9,0.2,1.8,0.9,2.5
		c0.7,0.5,1.6,0.7,2.5,0.7h5.2v8.1h-8.6v6.3h-7v-6.3h-17.9v5.8h-7L101.4,401.4L101.4,401.4z"/>
	<path d="M146.3,413.4v9h-18.5v0.4c1.7,0.6,3.2,1.6,4.3,3c1.3,1.7,1.9,3.8,1.8,5.9c0,3.3-1.1,5.8-3.3,7.4s-5.3,2.5-9.4,2.5h-20v-9
		h19.3c1.6,0.1,3.2-0.2,4.6-1c1.1-0.8,1.6-2.1,1.5-3.5c0-0.7-0.1-1.4-0.3-2.1c-0.2-0.7-0.5-1.3-0.9-1.9c-0.4-0.5-0.9-1-1.5-1.3
		c-0.6-0.3-1.3-0.5-2-0.5h-20.7v-9L146.3,413.4L146.3,413.4z"/>
	<path d="M100.7,462.9c0-2.2,0.4-4.4,1.2-6.5c0.7-1.8,1.9-3.5,3.3-4.8c1.5-1.4,3.3-2.4,5.2-3c4.5-1.3,9.3-1.3,13.8,0
		c1.9,0.6,3.7,1.6,5.2,2.9c1.5,1.3,2.6,2.9,3.4,4.7c0.8,2,1.2,4.2,1.2,6.4c0.1,2.3-0.4,4.6-1.3,6.8c-0.8,1.8-2,3.4-3.6,4.6
		c-1.5,1.2-3.3,2.1-5.2,2.6c-2,0.6-4.1,0.8-6.2,0.8h-2.6v-20.5h-0.5c-1.8-0.1-3.6,0.5-5,1.7c-1.2,1.1-1.8,2.9-1.8,5.3
		c-0.1,1.6,0.3,3.2,1.1,4.5c0.8,1.2,1.7,2.3,2.7,3.3l-5.6,4.5c-1.7-1.5-3.1-3.4-3.9-5.5C101.1,468.2,100.6,465.6,100.7,462.9z
		 M127.4,462.7c0.1-1.6-0.6-3.2-1.8-4.3c-1.3-1.1-3-1.6-4.8-1.5h-0.5v11.2h0.5c1.7,0.1,3.3-0.4,4.7-1.3
		C126.8,465.8,127.5,464.3,127.4,462.7L127.4,462.7z"/>
	<path d="M100.7,496.7c0-2.1,0.4-4.3,1.1-6.3c0.7-1.8,1.9-3.4,3.3-4.7c1.5-1.3,3.3-2.3,5.3-2.9c4.5-1.4,9.3-1.4,13.8,0
		c1.9,0.6,3.7,1.6,5.2,2.9c1.4,1.3,2.6,2.9,3.3,4.7c1.5,4,1.5,8.5,0,12.6c-0.7,1.8-1.9,3.4-3.3,4.7c-1.5,1.3-3.3,2.3-5.2,2.9
		c-4.5,1.4-9.3,1.4-13.8,0c-1.9-0.6-3.7-1.6-5.3-2.9c-1.5-1.3-2.6-2.9-3.3-4.7C101,501,100.6,498.8,100.7,496.7z M107.8,496.7
		c-0.1,1.6,0.5,3.1,1.6,4.1c1.3,1,3,1.6,4.7,1.5h6.5c1.7,0.1,3.3-0.4,4.7-1.5c2.2-2.3,2.2-5.9,0-8.3c-1.3-1-3-1.6-4.7-1.5h-6.5
		c-1.7-0.1-3.3,0.4-4.7,1.5C108.3,493.6,107.7,495.1,107.8,496.7L107.8,496.7z"/>
	<path d="M101.4,518h31.9v9h-6.9v0.3c0.9,0.2,1.8,0.4,2.6,0.8c0.8,0.4,1.6,0.9,2.2,1.6c0.6,0.7,1.2,1.5,1.5,2.3
		c0.4,1,0.6,2.2,0.6,3.3v1.6h-8.4v-2.2c0.1-2-0.2-4-1-5.9c-0.8-1.3-2.3-2.1-3.8-1.9h-18.6V518L101.4,518z"/>
	<path d="M133.3,542.5v9h-31.9v-9H133.3z M136.7,547c-0.1-1.4,0.3-2.9,1.2-4c0.8-0.8,2-1.3,3.2-1.2h1.3c1.2,0,2.3,0.4,3.2,1.2
		c1.7,2.4,1.7,5.6,0,8c-0.8,0.8-2,1.3-3.2,1.2h-1.3c-1.2,0-2.3-0.4-3.2-1.2C137,549.9,136.5,548.4,136.7,547L136.7,547z"/>
	<path d="M100.7,573.2c0-2.2,0.4-4.4,1.2-6.5c0.7-1.8,1.9-3.5,3.3-4.8c1.5-1.4,3.3-2.4,5.2-3c4.5-1.3,9.3-1.3,13.8,0
		c1.9,0.6,3.7,1.6,5.2,2.9c1.5,1.3,2.6,2.9,3.4,4.7c0.8,2,1.2,4.2,1.2,6.4c0.1,2.3-0.4,4.6-1.3,6.8c-0.8,1.8-2,3.4-3.6,4.6
		c-1.5,1.2-3.3,2.1-5.2,2.6c-2,0.6-4.1,0.8-6.2,0.8h-2.6v-20.5h-0.5c-1.8-0.1-3.6,0.5-5,1.7c-1.2,1.1-1.8,2.9-1.8,5.3
		c-0.1,1.6,0.3,3.2,1.1,4.5c0.8,1.2,1.7,2.3,2.7,3.3l-5.6,4.5c-1.7-1.5-3.1-3.4-3.9-5.5C101.1,578.5,100.6,575.8,100.7,573.2z
		 M127.4,573c0.1-1.6-0.6-3.2-1.8-4.3c-1.3-1.1-3-1.6-4.8-1.5h-0.5v11.2h0.5c1.7,0.1,3.3-0.4,4.7-1.3
		C126.8,576.1,127.5,574.5,127.4,573L127.4,573z"/>
</g>
<g>
	<path d="M1196.5,678.1v-8.7l12.9-3.1l9.7-2.2v-0.2l-9.7-2.5l-12.9-3.6v-8.2l12.9-3.7l9.7-2.6v-0.2l-9.7-2.2l-12.9-3.1v-8.3
		l31.9,8.8v9.4l-13.5,3.9l-8.3,2.2v0.2l8.3,2.2l13.5,3.9v9.2L1196.5,678.1z"/>
	<path d="M1193.1,619.5c0.1,1.4-0.3,2.9-1.2,4c-0.8,0.8-2,1.3-3.2,1.2h-1.3c-1.2,0-2.3-0.4-3.2-1.2c-1.7-2.4-1.7-5.6,0-8
		c0.8-0.8,2-1.3,3.2-1.2h1.3c1.2,0,2.3,0.4,3.2,1.2C1192.8,616.6,1193.2,618.1,1193.1,619.5z M1196.5,624v-9h31.9v9H1196.5z"/>
	<path d="M1229.1,595.8c0.1,2.7-0.4,5.3-1.5,7.8c-1,2.1-2.5,4.1-4.2,5.7l-5.3-5.3c1.2-1.1,2.2-2.3,3-3.8c0.7-1.4,1.1-3,1.1-4.7
		c0.1-1.3-0.2-2.6-0.8-3.7c-0.5-0.7-1.4-1-2.2-1c-1.5,0-2.4,1.1-2.7,3.2l-0.4,3.5c-0.9,7.2-4.2,10.7-9.8,10.8
		c-1.5,0-2.9-0.3-4.2-0.9c-1.3-0.6-2.4-1.4-3.3-2.5c-0.9-1.1-1.7-2.5-2.1-3.9c-0.5-1.7-0.8-3.4-0.8-5.1c0-1.5,0.1-2.9,0.3-4.4
		c0.2-1.2,0.5-2.3,1-3.4c0.4-1,0.9-1.9,1.6-2.7c0.7-0.9,1.3-1.7,2.1-2.5l5.3,5.2c-1,1-1.8,2.2-2.4,3.4c-0.6,1.2-0.9,2.6-0.9,3.9
		c-0.1,1.1,0.2,2.3,0.7,3.3c0.4,0.6,1.2,1,1.9,1c0.7,0.1,1.5-0.2,2-0.7c0.6-0.8,0.9-1.7,1-2.6l0.5-3.6c0.9-7,4.1-10.5,9.6-10.5
		c1.5,0,2.9,0.3,4.2,1c1.3,0.7,2.5,1.6,3.4,2.8c1,1.3,1.8,2.7,2.2,4.3C1228.9,592.1,1229.1,594,1229.1,595.8z"/>
	<path d="M1229.1,565.7c0.1,2.7-0.4,5.3-1.5,7.8c-1,2.1-2.5,4.1-4.2,5.7l-5.3-5.3c1.2-1.1,2.2-2.3,3-3.8c0.7-1.4,1.1-3,1.1-4.7
		c0.1-1.3-0.2-2.6-0.8-3.7c-0.5-0.7-1.4-1-2.2-1c-1.5,0-2.4,1.1-2.7,3.2l-0.4,3.5c-0.9,7.2-4.2,10.7-9.8,10.8
		c-1.5,0-2.9-0.3-4.2-0.9c-1.3-0.6-2.4-1.4-3.3-2.5c-0.9-1.1-1.7-2.5-2.1-3.9c-0.5-1.7-0.8-3.4-0.8-5.1c0-1.5,0.1-2.9,0.3-4.4
		c0.2-1.2,0.5-2.3,1-3.4c0.4-1,0.9-1.9,1.6-2.7c0.7-0.9,1.3-1.7,2.1-2.5l5.3,5.2c-1,1-1.8,2.2-2.4,3.4c-0.6,1.2-0.9,2.6-0.9,3.9
		c-0.1,1.1,0.2,2.3,0.7,3.3c0.4,0.6,1.2,1,1.9,1c0.7,0.1,1.5-0.2,2-0.7c0.6-0.8,0.9-1.7,1-2.6l0.5-3.6c0.9-7,4.1-10.5,9.6-10.5
		c1.5,0,2.9,0.3,4.2,1c1.3,0.7,2.5,1.6,3.4,2.8c1,1.3,1.8,2.7,2.2,4.3C1228.9,562,1229.1,563.8,1229.1,565.7z"/>
	<path d="M1229.1,532.6c0,2.2-0.4,4.4-1.2,6.5c-0.7,1.8-1.9,3.5-3.3,4.8c-1.5,1.4-3.3,2.4-5.2,3c-4.5,1.3-9.3,1.3-13.8,0
		c-1.9-0.6-3.7-1.6-5.2-2.9c-1.5-1.3-2.6-2.9-3.4-4.7c-0.8-2-1.2-4.2-1.2-6.4c-0.1-2.3,0.4-4.6,1.3-6.8c0.8-1.8,2-3.4,3.6-4.6
		c1.5-1.2,3.3-2.1,5.2-2.6c2-0.6,4.1-0.8,6.2-0.8h2.7v20.5h0.5c1.8,0.1,3.6-0.5,5-1.7c1.2-1.1,1.8-2.9,1.8-5.3
		c0.1-1.6-0.3-3.2-1.1-4.5c-0.8-1.2-1.7-2.3-2.7-3.3l5.6-4.5c1.7,1.5,3.1,3.4,3.9,5.5C1228.7,527.3,1229.2,529.9,1229.1,532.6z
		 M1202.4,532.8c-0.1,1.6,0.6,3.2,1.8,4.3c1.3,1.1,3,1.6,4.8,1.5h0.5v-11.2h-0.6c-1.7-0.1-3.3,0.4-4.7,1.3
		C1203,529.7,1202.3,531.2,1202.4,532.8z"/>
	<path d="M1228.4,511.8h-31.9v-9h5.4v-0.4c-1.7-0.6-3.2-1.6-4.3-3c-1.3-1.7-1.9-3.8-1.8-5.9c0-3.3,1.1-5.8,3.3-7.4
		c2.2-1.7,5.3-2.5,9.3-2.5h20v9h-19.2c-1.6-0.1-3.2,0.2-4.6,1c-1.1,0.8-1.6,2.1-1.5,3.5c0,0.7,0.1,1.4,0.3,2.1
		c0.2,0.7,0.5,1.3,0.9,1.8c0.4,0.5,0.9,1,1.5,1.3c0.6,0.3,1.3,0.5,2,0.5h20.6L1228.4,511.8L1228.4,511.8z"/>
	<path d="M1229.1,464.8c0.1,2.7-0.4,5.3-1.5,7.8c-1,2.1-2.5,4.1-4.2,5.7l-5.3-5.3c1.2-1.1,2.2-2.3,3-3.8c0.7-1.4,1.1-3,1.1-4.7
		c0.1-1.3-0.2-2.6-0.8-3.7c-0.5-0.7-1.4-1-2.2-1c-1.5,0-2.4,1.1-2.7,3.2l-0.4,3.5c-0.9,7.2-4.2,10.7-9.8,10.8
		c-1.5,0-2.9-0.3-4.2-0.9c-1.3-0.6-2.4-1.4-3.3-2.5c-0.9-1.1-1.7-2.5-2.1-3.9c-0.5-1.7-0.8-3.4-0.8-5.1c0-1.5,0.1-2.9,0.3-4.4
		c0.2-1.2,0.5-2.3,1-3.4c0.4-1,0.9-1.9,1.6-2.7c0.7-0.9,1.3-1.7,2.1-2.5l5.3,5.2c-1,1-1.8,2.2-2.4,3.4c-0.6,1.2-0.9,2.6-0.9,3.9
		c-0.1,1.1,0.2,2.3,0.7,3.3c0.4,0.6,1.2,1,1.9,1c0.7,0.1,1.5-0.2,2-0.7c0.6-0.8,0.9-1.7,1-2.6l0.5-3.6c0.9-7,4.1-10.5,9.6-10.5
		c1.5,0,2.9,0.3,4.2,1c1.3,0.7,2.5,1.6,3.4,2.8c1,1.3,1.8,2.7,2.2,4.3C1228.9,461.1,1229.1,462.9,1229.1,464.8z"/>
	<path d="M1229.1,432.1c0,2.2-0.4,4.3-1.2,6.4c-0.7,1.8-1.9,3.4-3.3,4.7c-1.5,1.3-3.3,2.3-5.2,2.9c-2.2,0.7-4.6,1-6.9,1
		c-2.3,0-4.7-0.3-6.9-1c-1.9-0.6-3.7-1.6-5.2-2.9c-1.5-1.3-2.6-2.9-3.3-4.7c-0.8-2-1.2-4.2-1.2-6.4c-0.1-2.9,0.7-5.7,2.2-8.1
		c1.5-2.2,3.6-3.8,6.1-4.6l3.2,7.3c-1.2,0.3-2.3,0.9-3.1,1.8c-0.9,1-1.3,2.3-1.3,3.7c-0.1,1.6,0.6,3.1,1.8,4.1
		c1.4,1,3.1,1.5,4.8,1.4h5.9c1.7,0.1,3.4-0.4,4.8-1.4c1.2-1,1.9-2.6,1.8-4.1c0.1-1.4-0.4-2.8-1.3-3.9c-0.9-1-2.1-1.7-3.4-2.1l3-7
		c2.7,0.8,5.1,2.5,6.7,4.9C1228.4,426.5,1229.2,429.3,1229.1,432.1z"/>
	<path d="M1183.5,413.6v-9h18.5v-0.4c-1.7-0.6-3.2-1.6-4.3-3c-1.3-1.7-1.9-3.8-1.8-5.9c0-3.3,1.1-5.8,3.3-7.4
		c2.2-1.7,5.3-2.5,9.3-2.5h20v9h-19.2c-1.6-0.1-3.2,0.2-4.6,1c-1.1,0.8-1.6,2.1-1.5,3.5c0,0.7,0.1,1.4,0.3,2.1
		c0.2,0.7,0.5,1.3,0.9,1.9c0.4,0.5,0.9,1,1.5,1.3c0.6,0.3,1.3,0.5,2,0.5h20.6v9L1183.5,413.6L1183.5,413.6z"/>
	<path d="M1228.4,353.9c0,1.5-0.5,2.9-1.5,4c-1.1,1.1-2.5,1.8-4.1,2v0.4c1.9,0.4,3.6,1.6,4.7,3.2c1.1,1.8,1.7,4,1.6,6.1
		c0,3.2-0.8,5.6-2.5,7.4c-1.8,1.7-4.2,2.7-6.7,2.5c-3.3,0-5.8-1.2-7.5-3.7c-1.6-2.4-2.5-5.8-2.4-10v-5h-2c-1.3-0.1-2.6,0.4-3.7,1.2
		c-0.9,0.8-1.4,2.2-1.4,4.1c-0.1,1.5,0.3,3,1.2,4.2c0.7,1,1.6,1.9,2.6,2.6l-4.8,5.3c-1.9-1.2-3.4-2.9-4.5-4.9
		c-1.2-2.5-1.8-5.2-1.6-8c0-4.5,1-7.9,3-10.2c2-2.3,4.9-3.4,8.7-3.4h14v-3h7L1228.4,353.9L1228.4,353.9z M1222.9,366.3
		c0-1.4-0.3-2.7-1-3.9c-0.7-1.1-1.9-1.7-3.1-1.6h-3.7v4.4c0,3.5,1.2,5.3,3.6,5.3h0.9c1,0.1,1.9-0.3,2.6-1.1
		C1222.6,368.5,1222.9,367.4,1222.9,366.3L1222.9,366.3z"/>
	<path d="M1203.5,341.3v4.5h-7v-4.5h-3.8c-3.1,0-5.4-0.8-7-2.4c-1.6-1.6-2.4-4-2.3-7.1v-5.8h7v6.4h6.1v-6.4h7v6.4h24.9v9
		L1203.5,341.3L1203.5,341.3z"/>
	<path d="M1228.4,309.8c0,3.1-0.8,5.5-2.4,7.1c-1.6,1.6-3.9,2.4-6.9,2.4h-15.6v4.5h-7v-2.2c0.1-0.9-0.2-1.8-0.9-2.5
		c-0.7-0.5-1.6-0.7-2.5-0.7h-5.2v-8.1h8.6v-6.3h7v6.3h17.9v-5.8h7L1228.4,309.8L1228.4,309.8z"/>
</g>
<g>
	<path d="M596.1,190.8h-0.3c-0.2,0.9-0.6,1.7-1.2,2.4c-0.5,0.7-1.2,1.4-1.9,1.9c-0.8,0.6-1.6,1-2.6,1.3c-1,0.3-1.9,0.5-2.9,0.5
		c-4,0-7.1-1.4-9.2-4.3s-3.1-7-3.1-12.4c0-5.4,1-9.5,3.1-12.4c2.1-2.8,5.1-4.3,9.2-4.2c2,0,3.9,0.6,5.5,1.7c1.5,1,2.6,2.6,3.1,4.4
		h0.3v-18.4h9v44.9h-9L596.1,190.8L596.1,190.8z M590.2,189.6c1.5,0.1,3-0.4,4.2-1.2c1.1-0.8,1.7-2.1,1.7-3.4v-9.4
		c0.1-1.4-0.6-2.6-1.7-3.4c-1.2-0.9-2.7-1.3-4.2-1.2c-1.6,0-3.1,0.6-4.2,1.8c-1.2,1.3-1.8,3.1-1.7,4.8v5.5c-0.1,1.8,0.5,3.5,1.7,4.8
		C587,189,588.6,189.6,590.2,189.6L590.2,189.6z"/>
	<path d="M626.7,196.9c-2.2,0-4.4-0.4-6.5-1.2c-1.8-0.7-3.5-1.9-4.8-3.3c-1.4-1.5-2.4-3.3-3-5.2c-1.3-4.5-1.3-9.3,0-13.8
		c0.6-1.9,1.6-3.7,2.9-5.2c1.3-1.5,2.9-2.6,4.7-3.4c2-0.8,4.2-1.2,6.4-1.2c2.3-0.1,4.6,0.4,6.8,1.3c1.8,0.8,3.4,2,4.6,3.6
		c1.2,1.5,2.1,3.3,2.6,5.2c0.6,2,0.8,4.1,0.8,6.2v2.7h-20.5v0.5c-0.1,1.8,0.5,3.6,1.7,5c1.1,1.2,2.9,1.8,5.3,1.8
		c1.6,0.1,3.2-0.3,4.5-1.1c1.2-0.8,2.3-1.7,3.3-2.7l4.5,5.6c-1.5,1.7-3.4,3.1-5.5,3.9C632,196.4,629.4,196.9,626.7,196.9z
		 M626.5,170.1c-1.6-0.1-3.2,0.6-4.3,1.8c-1.1,1.3-1.6,3-1.6,4.8v0.5h11.2v-0.6c0.1-1.7-0.4-3.3-1.3-4.7
		C629.6,170.7,628.1,170,626.5,170.1z"/>
	<path d="M658.3,196.9c-2.7,0.1-5.3-0.4-7.8-1.5c-2.1-1-4.1-2.5-5.7-4.2l5.3-5.3c1.1,1.2,2.3,2.2,3.8,3c1.4,0.7,3,1.1,4.7,1.1
		c1.3,0.1,2.6-0.2,3.7-0.8c0.7-0.5,1-1.4,1-2.2c0-1.5-1.1-2.4-3.2-2.7l-3.5-0.4c-7.2-0.9-10.8-4.2-10.8-9.8c0-1.5,0.3-2.9,0.9-4.2
		c0.6-1.3,1.4-2.4,2.5-3.3c1.1-1,2.5-1.7,3.9-2.1c1.7-0.5,3.4-0.8,5.1-0.8c1.5,0,2.9,0.1,4.4,0.3c1.2,0.2,2.3,0.5,3.4,1
		c1,0.4,1.9,0.9,2.7,1.6c0.9,0.7,1.7,1.3,2.5,2.1l-5.2,5.3c-1-1-2.2-1.8-3.4-2.4c-1.2-0.6-2.6-0.9-3.9-0.9c-1.1-0.1-2.3,0.2-3.3,0.7
		c-0.6,0.4-1,1.2-1,1.9c-0.1,0.7,0.2,1.5,0.7,2c0.8,0.6,1.7,0.9,2.6,1l3.6,0.5c7,0.9,10.5,4.1,10.5,9.6c0,1.5-0.3,2.9-1,4.2
		c-0.7,1.3-1.6,2.5-2.8,3.4c-1.3,1-2.7,1.8-4.3,2.2C662.1,196.6,660.2,196.9,658.3,196.9z"/>
	<path d="M682.7,160.9c-1.4,0.1-2.9-0.3-4-1.2c-0.8-0.8-1.3-2-1.2-3.2v-1.3c0-1.2,0.4-2.3,1.2-3.2c2.4-1.7,5.6-1.7,8,0
		c0.8,0.8,1.3,2,1.2,3.2v1.3c0,1.2-0.4,2.3-1.2,3.2C685.6,160.5,684.1,161,682.7,160.9z M678.2,164.2h9v31.8h-9V164.2z"/>
	<path d="M725,198.4c0,1.5-0.3,3.1-0.9,4.5c-0.6,1.4-1.6,2.5-2.9,3.3c-1.6,1-3.4,1.7-5.3,2.1c-5,0.9-10.1,0.9-15.2,0.2
		c-1.6-0.2-3.2-0.7-4.7-1.5c-1.1-0.5-2-1.3-2.6-2.3c-0.6-0.9-0.8-2-0.8-3.1c-0.1-1.6,0.5-3.1,1.6-4.2c1.2-1.1,2.7-1.7,4.4-1.9v-0.7
		c-1.4-0.2-2.6-0.9-3.5-2c-0.8-1-1.2-2.3-1.2-3.6c0-0.8,0.2-1.5,0.5-2.2c0.3-0.6,0.8-1.2,1.3-1.6c0.6-0.5,1.2-0.9,1.9-1.1
		c0.7-0.3,1.4-0.5,2.2-0.7v-0.2c-1.8-0.7-3.3-2-4.3-3.7c-1-1.6-1.4-3.5-1.4-5.4c-0.1-3,1.1-5.8,3.4-7.8c2.2-2,5.7-2.9,10.3-2.9
		c1.8,0,3.6,0.2,5.4,0.6v-1.2c-0.1-1.3,0.3-2.7,1.2-3.7c1-0.8,2.3-1.2,3.6-1.1h5v6.7h-7v0.4c1.7,0.8,3.2,2,4.1,3.7
		c0.9,1.7,1.4,3.5,1.3,5.4c0.1,2.9-1.1,5.8-3.4,7.7c-2.2,1.9-5.7,2.9-10.3,2.9c-1.9,0-3.8-0.2-5.7-0.7c-0.9,0.5-1.4,1.5-1.4,2.6
		c0,0.7,0.3,1.4,0.9,1.8c0.9,0.5,1.9,0.7,2.9,0.6h9.2c3.9,0,6.7,0.8,8.5,2.4C724.2,193.3,725.2,195.9,725,198.4z M716.6,199.6
		c0-0.9-0.4-1.7-1.1-2.1c-1.2-0.6-2.5-0.8-3.8-0.7h-10.9c-0.4,0.4-0.7,0.9-0.9,1.4c-0.2,0.5-0.3,1-0.3,1.5c-0.1,1.1,0.5,2.1,1.5,2.6
		c1.6,0.7,3.4,0.9,5.2,0.8h3.6c1.8,0.1,3.5-0.2,5.2-0.8C716,201.7,716.6,200.7,716.6,199.6L716.6,199.6z M707.9,178.9
		c1.4,0.1,2.8-0.3,4-1.1c0.9-0.8,1.4-2,1.3-3.2v-0.7c0.1-1.2-0.4-2.4-1.3-3.2c-2.5-1.5-5.5-1.5-8,0c-0.9,0.8-1.4,2-1.3,3.2v0.7
		c-0.1,1.2,0.4,2.4,1.3,3.2C705,178.6,706.5,179,707.9,178.9L707.9,178.9z"/>
	<path d="M729,196.1v-31.8h9v5.4h0.4c0.6-1.7,1.6-3.2,3-4.3c1.7-1.3,3.8-1.9,5.9-1.8c3.3,0,5.8,1.1,7.4,3.3c1.7,2.2,2.5,5.3,2.5,9.4
		v20h-9v-19.3c0.1-1.6-0.2-3.2-1-4.6c-0.8-1.1-2.1-1.6-3.5-1.5c-0.7,0-1.4,0.1-2.1,0.3c-0.7,0.2-1.3,0.5-1.8,0.9
		c-0.5,0.4-1,0.9-1.3,1.5c-0.3,0.6-0.5,1.3-0.5,2v20.6H729L729,196.1z"/>
</g>
<g>
	<path d="M515.7,508.5c-3.1,0-5.5-0.8-7.1-2.4c-1.6-1.6-2.4-3.9-2.4-6.9v-15.6h-4.5v-7h2.2c0.9,0.1,1.8-0.2,2.5-0.9
		c0.5-0.7,0.7-1.6,0.7-2.5v-5.2h8.1v8.6h6.3v7h-6.3v17.9h5.8v7L515.7,508.5L515.7,508.5z"/>
	<path d="M540.8,509.2c-2.2,0-4.4-0.4-6.5-1.2c-1.8-0.7-3.5-1.9-4.8-3.3c-1.4-1.5-2.4-3.3-3-5.2c-1.3-4.5-1.3-9.3,0-13.8
		c0.6-1.9,1.6-3.7,2.9-5.2c1.3-1.5,2.9-2.6,4.7-3.4c2-0.8,4.2-1.2,6.4-1.2c2.3-0.1,4.6,0.4,6.8,1.3c1.8,0.8,3.4,2,4.6,3.6
		c1.2,1.5,2.1,3.3,2.6,5.2c0.6,2,0.8,4.1,0.8,6.2v2.7h-20.4v0.5c-0.1,1.8,0.5,3.6,1.7,5c1.1,1.2,2.9,1.8,5.3,1.8
		c1.6,0.1,3.2-0.3,4.5-1.1c1.2-0.8,2.3-1.7,3.3-2.7l4.5,5.6c-1.5,1.7-3.4,3.1-5.6,3.9C546.1,508.8,543.5,509.2,540.8,509.2z
		 M540.6,482.5c-1.6-0.1-3.2,0.6-4.3,1.8c-1.1,1.3-1.6,3-1.5,4.8v0.5H546V489c0.1-1.7-0.4-3.3-1.3-4.7
		C543.7,483,542.2,482.3,540.6,482.5L540.6,482.5z"/>
	<path d="M574.5,509.2c-2.2,0-4.3-0.4-6.4-1.2c-1.8-0.7-3.4-1.9-4.7-3.3c-1.3-1.5-2.3-3.3-2.8-5.2c-0.7-2.2-1-4.6-1-6.9
		c0-2.3,0.3-4.7,1-6.9c0.6-1.9,1.6-3.7,2.8-5.2c1.3-1.5,2.9-2.6,4.7-3.3c2-0.8,4.2-1.2,6.4-1.2c2.9-0.1,5.7,0.7,8.1,2.2
		c2.2,1.5,3.8,3.6,4.6,6.1l-7.3,3.2c-0.3-1.2-0.9-2.3-1.8-3.1c-1-0.9-2.3-1.3-3.7-1.3c-1.6-0.1-3.1,0.6-4.1,1.8
		c-1,1.4-1.5,3.1-1.4,4.8v6c-0.1,1.7,0.4,3.4,1.4,4.8c1,1.2,2.6,1.9,4.1,1.8c1.4,0.1,2.8-0.4,3.8-1.3c1-0.9,1.7-2.1,2.1-3.4l7,3
		c-0.8,2.7-2.5,5.1-4.9,6.7C580.1,508.5,577.3,509.3,574.5,509.2z"/>
	<path d="M593,463.5h9V482h0.4c0.6-1.7,1.6-3.2,3-4.3c1.7-1.3,3.8-1.9,5.9-1.8c3.3,0,5.8,1.1,7.4,3.3c1.7,2.2,2.5,5.3,2.5,9.3v20h-9
		v-19.3c0.1-1.6-0.2-3.2-1-4.6c-0.8-1.1-2.1-1.6-3.5-1.5c-0.7,0-1.4,0.1-2.1,0.3c-0.7,0.2-1.3,0.5-1.8,0.9c-0.5,0.4-1,0.9-1.3,1.5
		c-0.3,0.6-0.5,1.3-0.5,2v20.6h-9L593,463.5L593,463.5z"/>
	<path d="M629.2,508.5v-31.9h9v5.4h0.4c0.6-1.7,1.6-3.2,3-4.3c1.7-1.3,3.8-1.9,5.9-1.8c3.3,0,5.8,1.1,7.4,3.3
		c1.7,2.2,2.5,5.3,2.5,9.3v20h-9v-19.3c0.1-1.6-0.2-3.2-1-4.6c-0.8-1.1-2.1-1.6-3.5-1.5c-0.7,0-1.4,0.1-2.1,0.3
		c-0.7,0.2-1.3,0.5-1.8,0.9c-0.5,0.4-1,0.9-1.3,1.5c-0.3,0.6-0.5,1.3-0.5,2v20.6L629.2,508.5L629.2,508.5z"/>
	<path d="M678.3,509.2c-2.1,0-4.3-0.4-6.3-1.2c-1.8-0.7-3.4-1.9-4.7-3.3c-1.3-1.5-2.3-3.3-2.9-5.3c-1.4-4.5-1.4-9.3,0-13.8
		c0.6-1.9,1.6-3.7,2.9-5.2c1.3-1.4,2.9-2.6,4.7-3.3c4-1.5,8.5-1.5,12.6,0c1.8,0.7,3.4,1.9,4.7,3.3c1.3,1.5,2.3,3.3,2.9,5.2
		c1.4,4.5,1.4,9.3,0,13.8c-0.6,1.9-1.6,3.7-2.9,5.3c-1.3,1.5-2.9,2.6-4.7,3.3C682.6,508.8,680.4,509.2,678.3,509.2z M678.3,502.1
		c1.6,0.1,3.1-0.5,4.1-1.6c1-1.3,1.6-3,1.5-4.7v-6.5c0.1-1.7-0.4-3.3-1.5-4.7c-2.3-2.2-5.9-2.2-8.3,0c-1,1.3-1.6,3-1.5,4.7v6.5
		c-0.1,1.7,0.4,3.3,1.5,4.7C675.2,501.6,676.7,502.2,678.3,502.1z"/>
	<path d="M708.5,508.5c-3.1,0-5.3-0.8-6.8-2.2s-2.2-3.7-2.2-6.5v-36.2h9v37.9h4v7L708.5,508.5L708.5,508.5z"/>
	<path d="M730.9,509.2c-2.1,0-4.3-0.4-6.3-1.2c-1.8-0.7-3.4-1.9-4.7-3.3c-1.3-1.5-2.3-3.3-2.9-5.3c-1.4-4.5-1.4-9.3,0-13.8
		c0.6-1.9,1.6-3.7,2.9-5.2c1.3-1.4,2.9-2.6,4.7-3.3c4-1.5,8.5-1.5,12.6,0c1.8,0.7,3.4,1.9,4.7,3.3c1.3,1.5,2.3,3.3,2.9,5.2
		c1.4,4.5,1.4,9.3,0,13.8c-0.6,1.9-1.6,3.7-2.9,5.3c-1.3,1.5-2.9,2.6-4.7,3.3C735.2,508.8,733.1,509.2,730.9,509.2z M730.9,502.1
		c1.6,0.1,3.1-0.5,4.1-1.6c1-1.3,1.6-3,1.5-4.7v-6.5c0.1-1.7-0.4-3.3-1.5-4.7c-2.3-2.2-5.9-2.2-8.3,0c-1,1.3-1.6,3-1.5,4.7v6.5
		c-0.1,1.7,0.4,3.3,1.5,4.7C727.9,501.6,729.4,502.2,730.9,502.1z"/>
	<path d="M781.7,510.8c0,1.5-0.3,3.1-0.9,4.5c-0.6,1.4-1.6,2.5-2.9,3.3c-1.6,1-3.4,1.7-5.3,2.1c-5,0.9-10.1,0.9-15.2,0.2
		c-1.6-0.2-3.2-0.7-4.7-1.5c-1.1-0.5-2-1.3-2.6-2.3c-0.6-0.9-0.8-2-0.8-3.1c-0.1-1.6,0.5-3.1,1.6-4.2c1.2-1.1,2.7-1.7,4.4-1.9v-0.7
		c-1.4-0.2-2.6-0.9-3.5-2c-0.8-1-1.2-2.3-1.2-3.6c0-0.8,0.2-1.5,0.5-2.2c0.3-0.6,0.8-1.2,1.3-1.6c0.6-0.5,1.2-0.9,1.9-1.1
		c0.7-0.3,1.4-0.5,2.2-0.7v-0.2c-1.8-0.7-3.3-2-4.3-3.7c-1-1.6-1.4-3.5-1.4-5.4c-0.1-3,1.1-5.8,3.4-7.8c2.2-2,5.7-2.9,10.3-2.9
		c1.8,0,3.6,0.2,5.4,0.6v-1.2c-0.1-1.3,0.3-2.7,1.2-3.7c1-0.8,2.3-1.2,3.6-1.1h5v6.6h-7v0.4c1.7,0.8,3.2,2,4.1,3.7
		c0.9,1.7,1.4,3.5,1.3,5.4c0.1,2.9-1.1,5.8-3.4,7.7c-2.2,1.9-5.7,2.9-10.3,2.9c-1.9,0-3.8-0.2-5.7-0.7c-0.9,0.5-1.4,1.5-1.4,2.5
		c0,0.7,0.3,1.4,0.9,1.8c0.9,0.5,1.9,0.7,2.9,0.6h9.3c3.9,0,6.7,0.8,8.5,2.4C781,505.7,781.9,508.2,781.7,510.8z M773.3,512
		c0-0.9-0.4-1.7-1.1-2.1c-1.2-0.6-2.5-0.8-3.8-0.7h-10.9c-0.4,0.4-0.7,0.9-0.9,1.4c-0.2,0.5-0.3,1-0.3,1.5c-0.1,1.1,0.5,2.1,1.5,2.6
		c1.6,0.7,3.4,0.9,5.2,0.8h3.7c1.8,0.1,3.5-0.2,5.2-0.8C772.8,514.1,773.4,513,773.3,512L773.3,512z M764.6,491.2
		c1.4,0.1,2.8-0.3,4-1.1c0.9-0.8,1.4-2,1.3-3.2v-0.7c0.1-1.2-0.4-2.4-1.3-3.2c-2.5-1.5-5.5-1.5-8,0c-0.9,0.8-1.4,2-1.3,3.2v0.7
		c-0.1,1.2,0.4,2.4,1.4,3.2C761.8,490.9,763.2,491.3,764.6,491.2L764.6,491.2z"/>
	<path d="M790.2,473.2c-1.4,0.1-2.9-0.3-4-1.2c-0.8-0.8-1.3-2-1.2-3.2v-1.3c0-1.2,0.4-2.3,1.2-3.2c2.4-1.7,5.6-1.7,8,0
		c0.8,0.8,1.3,2,1.2,3.2v1.3c0,1.2-0.4,2.3-1.2,3.2C793.1,472.9,791.7,473.3,790.2,473.2z M785.7,476.6h9v31.9h-9V476.6z"/>
	<path d="M816.4,509.2c-2.2,0-4.4-0.4-6.5-1.2c-1.8-0.7-3.5-1.9-4.8-3.3c-1.4-1.5-2.4-3.3-3-5.2c-1.3-4.5-1.3-9.3,0-13.8
		c0.6-1.9,1.6-3.7,2.9-5.2c1.3-1.5,2.9-2.6,4.7-3.3c2-0.8,4.2-1.2,6.4-1.2c2.3-0.1,4.6,0.4,6.8,1.3c1.8,0.8,3.4,2,4.6,3.6
		c1.2,1.5,2.1,3.3,2.6,5.2c0.6,2,0.8,4.1,0.8,6.2v2.7h-20.5v0.5c-0.1,1.8,0.5,3.6,1.7,5c1.1,1.2,2.9,1.8,5.3,1.8
		c1.6,0.1,3.2-0.3,4.6-1.1c1.2-0.8,2.3-1.7,3.3-2.7l4.5,5.6c-1.5,1.7-3.4,3.1-5.6,3.9C821.7,508.8,819.1,509.3,816.4,509.2z
		 M816.2,482.5c-1.6-0.1-3.2,0.6-4.3,1.8c-1.1,1.3-1.6,3-1.6,4.8v0.5h11.2V489c0.1-1.7-0.4-3.3-1.3-4.7
		C819.3,483,817.8,482.3,816.2,482.5L816.2,482.5z"/>
</g>
</svg>
